<?xml version="1.0" standalone="no"?>
<!DOCTYPE svg PUBLIC "-//W3C//DTD SVG 20010904//EN"
 "http://www.w3.org/TR/2001/REC-SVG-20010904/DTD/svg10.dtd">
<svg version="1.0" xmlns="http://www.w3.org/2000/svg"
 width="1024.000000pt" height="1024.000000pt" viewBox="0 0 1024.000000 1024.000000"
 preserveAspectRatio="xMidYMid meet">

<g transform="translate(0.000000,1024.000000) scale(0.100000,-0.100000)"
fill="#000000" stroke="none">
<path d="M0 5120 l0 -5120 5120 0 5120 0 0 5120 0 5120 -5120 0 -5120 0 0
-5120z m5316 3557 c57 -23 207 -111 1039 -607 511 -305 1119 -664 1480 -873
127 -74 205 -169 251 -307 18 -52 19 -121 22 -1322 l3 -1268 22 -5 c12 -3 50
-11 85 -18 l63 -12 -1 -293 -1 -292 60 -59 c34 -33 73 -86 90 -120 58 -114 63
-152 68 -539 3 -194 2 -391 -2 -438 l-7 -84 -709 0 -710 0 -362 -209 c-485
-280 -551 -318 -917 -532 -173 -101 -359 -206 -414 -234 l-99 -50 -131 0
c-158 1 -164 3 -397 141 -142 84 -624 360 -934 534 -405 227 -563 320 -600
352 l-43 38 -123 -41 c-109 -37 -137 -42 -244 -46 -188 -8 -324 24 -492 115
-97 53 -272 230 -334 337 -108 188 -144 322 -144 540 0 169 16 260 68 385 55
134 118 231 213 330 l54 55 2 1340 3 1340 23 66 c45 134 137 237 281 315 151
83 382 218 1376 809 160 95 396 234 525 310 129 76 289 171 355 210 239 144
303 167 436 161 60 -3 104 -12 145 -29z"/>
<path d="M5050 8498 c-36 -13 -144 -71 -240 -129 -96 -59 -265 -160 -375 -224
-110 -65 -375 -222 -590 -350 -594 -353 -1087 -644 -1214 -716 -141 -80 -192
-124 -228 -197 l-28 -57 -5 -1386 -5 -1387 -73 -67 c-122 -113 -212 -275 -243
-435 -29 -156 -5 -370 58 -514 89 -205 272 -371 473 -430 142 -42 312 -28 479
38 48 20 93 36 99 36 10 0 96 -48 552 -307 107 -61 319 -180 470 -265 151 -86
379 -215 505 -289 387 -225 428 -240 546 -206 30 9 189 94 359 193 710 411
1338 773 1385 798 l50 26 553 0 553 0 32 -24 c33 -25 134 -76 152 -76 6 0 11
143 12 405 3 456 3 458 -68 519 -37 32 -120 66 -160 66 -18 0 -19 13 -19 303
l0 303 -85 -4 -85 -4 -2 1343 -3 1344 -23 56 c-27 67 -98 139 -187 188 -60 34
-95 55 -355 209 -74 44 -295 174 -490 289 -637 376 -1396 829 -1459 873 -142
96 -232 116 -341 78z m237 -143 c104 -64 379 -232 643 -392 192 -116 311 -187
722 -431 65 -38 115 -71 113 -74 -3 -3 1 -5 7 -5 12 0 280 -154 553 -318 66
-40 163 -96 215 -125 148 -82 199 -118 220 -153 11 -18 20 -35 20 -38 0 -11
-51 -29 -62 -23 -6 4 -8 2 -5 -3 4 -6 0 -13 -8 -16 -8 -4 -13 -1 -11 6 1 7 1
9 -1 5 -3 -5 -17 -8 -31 -9 l-27 -1 25 -8 c14 -4 21 -9 15 -10 -50 -8 -65 -8
-59 2 5 8 1 9 -12 4 -10 -4 -43 -17 -71 -28 -29 -11 -53 -23 -53 -27 0 -4 -9
-7 -19 -8 -10 -1 -42 -12 -71 -24 -38 -16 -48 -25 -38 -31 10 -7 9 -9 -4 -4
-22 7 -99 -24 -91 -37 4 -6 0 -8 -9 -4 -12 4 -14 0 -10 -16 3 -12 10 -26 16
-30 7 -6 4 -7 -6 -3 -10 3 -18 1 -18 -5 0 -6 -4 -8 -9 -5 -5 4 -11 1 -13 -6
-3 -7 -7 -5 -11 6 -4 10 -3 15 3 11 6 -3 10 -1 10 4 0 6 -5 11 -11 11 -5 0 -7
4 -4 10 3 6 -1 7 -9 4 -9 -3 -16 -9 -16 -13 0 -4 -6 -8 -12 -8 -24 0 -93 -35
-80 -40 6 -3 12 -11 12 -18 0 -7 5 -15 11 -17 6 -2 -5 -11 -25 -21 -21 -10
-35 -12 -33 -6 1 7 -4 14 -12 17 -8 3 -11 0 -7 -7 4 -6 1 -11 -6 -11 -10 0
-10 -2 -1 -8 8 -5 -23 -25 -83 -55 -53 -27 -98 -46 -101 -43 -2 2 5 7 16 11
12 3 21 14 21 23 0 11 3 13 8 5 5 -8 25 -2 67 20 62 32 65 36 65 61 0 8 8 16
18 18 11 2 13 6 5 11 -6 4 -18 0 -27 -8 -8 -9 -19 -16 -23 -15 -16 0 -51 -14
-143 -58 -52 -24 -111 -51 -130 -58 -19 -7 -34 -18 -32 -24 1 -6 -2 -8 -8 -5
-13 8 -70 -14 -70 -27 0 -5 -4 -7 -9 -4 -4 3 -17 -1 -27 -9 -18 -15 -18 -15 7
-10 20 5 27 1 37 -19 12 -26 4 -39 -20 -33 -7 2 -10 2 -6 0 4 -2 -3 -15 -14
-28 -12 -14 -25 -22 -30 -19 -5 3 -7 2 -6 -3 3 -10 -25 -73 -33 -73 -3 0 -5
-27 -5 -59 1 -58 0 -60 -28 -65 -52 -11 -84 -6 -146 21 l-61 26 8 51 c4 28 7
67 6 86 -1 19 -3 87 -6 151 -2 63 -7 121 -12 128 -4 7 -26 22 -50 32 -37 16
-48 30 -97 121 -30 57 -135 249 -233 428 -230 420 -254 464 -457 845 -195 366
-222 412 -249 420 -30 10 -50 -14 -117 -138 -210 -391 -336 -624 -361 -665
-16 -26 -122 -216 -236 -422 -114 -206 -234 -421 -267 -477 l-60 -101 -52 5
c-46 5 -54 3 -78 -22 -34 -33 -34 -44 -6 -80 21 -26 21 -30 8 -109 -15 -87
-15 -99 -2 -194 l9 -63 -60 -30 c-54 -28 -65 -30 -124 -23 -54 5 -63 9 -58 23
25 65 2 135 -63 192 -20 18 -174 100 -342 182 -168 82 -389 193 -491 248 -102
54 -196 99 -210 99 -13 0 -33 -7 -44 -16 -20 -15 -20 -28 -22 -1156 l-3 -1141
23 -20 22 -19 -22 6 c-14 5 -23 3 -23 -3 0 -6 5 -11 11 -11 5 0 7 -5 3 -12
-18 -29 -12 -54 19 -72 17 -10 33 -13 35 -8 1 5 15 7 30 5 21 -4 24 -2 12 6
-8 6 -10 11 -5 11 13 -1 45 -25 45 -35 0 -4 -7 -2 -15 5 -11 9 -15 9 -15 1 0
-6 7 -14 15 -17 8 -4 15 -10 15 -15 0 -4 -7 -5 -17 -2 -11 4 -14 3 -9 -5 4 -7
2 -12 -3 -12 -6 0 -11 5 -11 10 0 6 -9 10 -20 10 -11 0 -20 5 -20 10 0 6 -7
10 -15 10 -8 0 -15 5 -15 10 0 6 -4 10 -10 10 -18 0 -10 -22 10 -27 11 -3 20
-9 20 -14 0 -5 7 -9 16 -9 8 0 12 -4 9 -10 -3 -5 3 -10 14 -10 12 0 21 -6 21
-14 0 -8 8 -17 18 -19 9 -3 -4 -4 -30 -3 -27 1 -48 -2 -48 -6 0 -5 -6 -8 -12
-7 -11 2 -103 -23 -146 -38 -10 -4 -12 260 -10 1343 l3 1349 24 43 c30 51 23
46 286 197 458 264 2137 1264 2202 1312 56 41 94 54 155 50 48 -3 70 -11 135
-52z m-356 -1060 c52 -19 87 -49 105 -92 44 -102 -14 -200 -196 -337 -85 -64
-130 -107 -124 -118 6 -9 147 -11 181 -2 12 3 31 21 42 40 38 64 112 35 115
-45 0 -21 -6 -51 -14 -66 -27 -50 -51 -55 -268 -55 -186 0 -201 1 -226 21 -14
11 -26 24 -26 29 0 10 62 112 94 155 15 19 85 80 156 135 71 55 134 109 140
120 19 35 12 77 -16 99 -15 12 -35 21 -46 21 -29 0 -68 -45 -68 -78 0 -16 -5
-43 -11 -61 -14 -39 -48 -42 -96 -5 -39 30 -44 73 -14 132 25 48 55 76 111
101 54 25 102 26 161 6z m564 -9 c94 -43 152 -135 175 -278 27 -170 -59 -347
-188 -384 -164 -48 -302 49 -342 239 -26 127 20 288 106 374 76 76 157 92 249
49z m2041 -582 c1 -9 0 -13 -4 -10 -3 4 -7 14 -8 22 -1 9 0 13 4 10 3 -4 7
-14 8 -22z m-132 -49 c-4 -8 -10 -15 -15 -15 -5 0 -9 7 -9 15 0 8 7 15 15 15
9 0 12 -6 9 -15z m-94 -75 c-8 -5 -19 -10 -25 -10 -5 0 -3 5 5 10 8 5 20 10
25 10 6 0 3 -5 -5 -10z m-154 -72 c-6 -4 -12 -3 -14 2 -2 6 -11 10 -20 11 -14
0 -13 2 3 8 23 9 50 -9 31 -21z m-1122 -120 c-5 -7 -23 -33 -40 -58 -18 -25
-44 -76 -58 -114 -28 -78 -63 -121 -121 -146 -77 -35 -111 -34 -189 5 -84 41
-174 60 -231 47 -37 -8 -44 -5 -88 30 -46 36 -127 68 -172 68 -43 0 -125 -32
-170 -65 -42 -32 -51 -35 -116 -35 -61 0 -85 -6 -165 -40 -104 -44 -127 -47
-202 -25 -86 26 -124 71 -152 182 -6 23 -26 65 -46 94 -19 29 -37 56 -40 61
-3 4 400 8 896 8 718 0 900 -3 894 -12z m786 -38 c0 -4 -6 -10 -14 -13 -10 -4
-14 0 -13 12 1 18 27 18 27 1z m-43 -15 c0 -8 -4 -12 -9 -9 -5 3 -6 10 -3 15
9 13 12 11 12 -6z m-109 -52 l37 6 -35 -19 c-39 -20 -51 -13 -48 30 l1 25 4
-24 c4 -21 9 -23 41 -18z m-2509 -10 c10 -21 33 -73 50 -115 35 -82 92 -156
151 -193 42 -27 131 -55 171 -55 l28 0 -24 -52 c-14 -29 -25 -61 -25 -71 0
-27 -45 -16 -147 34 -97 48 -170 115 -209 190 -25 49 -29 66 -32 177 -4 132 3
150 37 85z m1976 -90 c-5 -95 -12 -138 -27 -170 -32 -68 -119 -148 -212 -193
-114 -56 -125 -56 -145 2 -9 26 -19 50 -23 54 -19 18 -4 32 46 42 144 29 252
130 305 284 19 54 48 108 59 108 2 0 1 -57 -3 -127z m579 118 c4 -5 -3 -7 -14
-4 -23 6 -26 13 -6 13 8 0 17 -4 20 -9z m-3597 -105 c36 -30 64 -44 201 -100
101 -42 114 -45 128 -31 34 33 84 6 84 -45 0 -37 -35 -131 -61 -164 -29 -37
-68 -35 -75 4 -4 16 -12 34 -19 40 -7 6 -80 40 -161 75 -148 64 -148 64 -169
45 -29 -27 -61 -25 -80 4 -14 22 -14 28 5 77 36 90 58 119 90 119 16 0 41 -11
57 -24z m4029 -12 c22 -10 40 -31 54 -59 17 -36 70 -265 84 -365 2 -14 7 -33
11 -42 4 -10 4 -25 1 -34 -3 -8 -2 -13 3 -10 4 3 16 -21 26 -54 10 -32 24 -61
32 -64 8 -3 12 -10 9 -15 -3 -5 2 -8 12 -7 28 2 29 -58 0 -78 -25 -18 -58 -21
-58 -6 0 6 -6 9 -12 8 -7 -2 -12 3 -10 11 2 8 -3 11 -12 8 -10 -4 -19 7 -30
33 -21 53 -62 221 -71 295 -8 58 -8 59 -16 25 -4 -19 -15 -89 -24 -154 -27
-202 -74 -291 -148 -284 -73 7 -103 165 -77 414 21 210 65 333 133 375 39 23
50 23 93 3z m-1972 -117 c22 -16 35 -75 36 -157 l0 -64 58 56 c63 61 100 78
174 78 58 0 112 -21 151 -57 35 -34 34 -44 -2 -33 -31 9 -65 -3 -37 -13 17 -7
43 -53 50 -90 6 -34 -8 -38 -99 -30 -52 4 -75 3 -75 -5 0 -19 65 -78 101 -91
58 -22 61 -25 79 -92 9 -36 20 -71 24 -77 5 -9 -5 -10 -37 -6 -86 12 -166 -38
-235 -146 -20 -30 -40 -58 -46 -62 -6 -4 -8 -8 -3 -8 4 0 1 -16 -7 -35 -24
-56 -30 -123 -16 -166 7 -21 16 -39 20 -39 4 0 15 21 25 48 26 69 57 132 67
132 4 0 8 -11 8 -23 0 -13 8 -31 18 -41 20 -17 112 -28 112 -13 0 5 7 7 15 3
8 -3 14 0 12 7 -1 7 4 11 10 10 7 -2 12 0 11 5 -1 4 6 21 15 39 20 37 22 94 5
111 -14 14 -80 16 -126 3 -39 -12 -40 -5 -6 33 51 54 132 69 165 29 10 -11 13
-77 15 -251 2 -264 3 -255 -72 -383 l-46 -77 -88 96 c-49 52 -86 100 -83 106
4 7 3 8 -4 1 -6 -5 -16 -41 -22 -79 l-12 -69 37 -54 c49 -71 73 -143 74 -219
0 -53 -4 -68 -32 -110 -18 -27 -45 -55 -60 -63 -24 -14 -33 -13 -96 7 -86 28
-156 28 -230 1 -31 -11 -64 -23 -72 -25 -21 -7 -79 53 -103 105 -15 34 -18 56
-13 95 9 67 33 141 64 194 22 39 24 49 16 104 -5 34 -14 63 -20 65 -6 2 -42
-35 -80 -83 -80 -99 -63 -104 -150 47 l-51 89 1 251 c2 234 3 252 21 265 40
30 96 11 155 -51 l35 -37 -30 5 c-16 3 -47 8 -67 12 -49 10 -68 -6 -68 -55 0
-69 64 -133 134 -133 32 0 66 33 66 64 0 46 43 -6 71 -83 16 -47 26 -48 35 -2
11 59 -2 111 -47 187 -87 143 -174 207 -261 190 -25 -5 -30 -3 -26 8 3 8 14
41 24 74 23 77 26 81 84 100 46 15 110 71 110 95 0 13 -10 13 -60 -5 -114 -40
-165 14 -99 106 l20 29 -32 -7 -33 -6 22 31 c49 68 187 98 276 59 38 -17 38
-17 32 -62 -8 -50 -7 -51 33 -30 16 8 31 12 34 8 9 -9 25 36 32 89 4 30 16 59
31 78 28 33 41 36 68 17z m-1031 -205 c35 -37 34 -52 -3 -52 -17 0 -46 -6 -65
-14 -47 -20 -125 -94 -142 -136 -14 -32 -14 -35 8 -53 20 -16 35 -19 89 -14
36 3 74 9 84 13 40 15 6 -12 -51 -41 -32 -16 -60 -31 -63 -33 -3 -2 3 -8 12
-13 9 -5 23 -15 30 -22 13 -12 37 -24 136 -71 67 -31 172 -30 246 3 59 25 56
25 56 3 0 -48 -104 -95 -205 -94 -116 2 -217 45 -347 149 -62 49 -73 63 -69
85 0 5 -4 7 -10 5 -6 -1 -16 6 -22 16 -10 14 -6 29 21 82 47 90 102 148 174
184 75 38 87 38 121 3z m2116 -4 c87 -42 191 -178 191 -249 0 -21 -14 -39 -62
-80 -88 -73 -199 -144 -266 -169 -119 -45 -322 -6 -322 62 0 15 1 28 3 28 1 0
26 -9 55 -20 61 -23 167 -26 225 -6 38 14 122 62 166 95 l24 18 -60 34 -60 34
98 -3 c109 -4 110 -3 83 53 -33 71 -147 155 -209 155 -32 0 -31 7 2 42 33 35
70 36 132 6z m-3114 -23 c173 -45 302 -195 279 -322 -15 -82 -56 -136 -121
-158 -52 -18 -96 -11 -183 32 -118 58 -195 141 -215 231 -17 82 42 190 120
217 51 18 50 18 120 0z m611 -3 c21 -7 20 -9 -21 -81 -30 -51 -47 -94 -56
-142 l-12 -69 -37 0 -37 0 34 88 c87 224 83 218 129 204z m2845 -111 c22 -57
37 -106 35 -109 -3 -2 -17 20 -32 50 -14 29 -41 73 -58 98 -52 73 -52 72 -16
68 31 -3 34 -7 71 -107z m59 -148 c0 -5 -5 -15 -10 -23 -8 -12 -10 -11 -10 8
0 12 5 22 10 22 6 0 10 -3 10 -7z m14 -39 c3 -8 2 -12 -4 -9 -6 3 -10 10 -10
16 0 14 7 11 14 -7z m46 -122 c0 -5 12 -37 26 -72 14 -35 26 -72 27 -82 1 -10
5 -18 10 -18 5 0 7 -9 4 -21 -3 -12 -3 -18 1 -15 8 9 74 -175 67 -192 -2 -7
-1 -11 4 -8 8 6 22 -22 36 -73 5 -16 4 -21 -4 -17 -7 5 -9 1 -5 -8 3 -9 11
-13 18 -9 6 4 3 -5 -6 -20 -21 -30 -22 -37 -8 -37 6 0 10 6 10 14 0 8 5 18 10
21 6 4 10 3 9 -2 -1 -4 1 -17 6 -28 32 -80 35 -90 21 -72 -8 10 -16 14 -18 10
-3 -4 -3 -2 -2 5 2 7 -7 12 -25 12 -24 0 -28 -3 -24 -20 3 -11 9 -20 14 -20 5
0 9 -8 9 -19 0 -24 49 -36 58 -13 5 13 7 12 12 -4 4 -10 2 -22 -4 -26 -7 -5
-4 -8 7 -8 9 0 17 -5 17 -11 0 -5 -5 -7 -11 -3 -8 4 -9 0 -4 -15 5 -16 2 -21
-13 -21 -16 0 -19 -6 -17 -37 2 -21 9 -39 16 -42 8 -2 17 -9 22 -15 5 -8 9 -7
15 1 6 10 12 10 28 -1 16 -12 16 -15 4 -20 -33 -11 -80 -12 -84 -2 -3 7 -9 5
-15 -4 -15 -20 -14 -4 1 19 9 15 8 22 -5 36 -16 15 -17 15 -17 -2 -1 -11 -7
-5 -15 16 -18 39 -18 44 -5 36 6 -3 10 1 10 9 0 9 -6 13 -14 10 -11 -4 -13 0
-9 17 4 14 2 20 -4 16 -6 -4 -20 17 -32 49 -24 63 -25 67 -12 60 5 -3 9 6 9
19 0 14 -6 25 -14 25 -8 0 -11 -7 -8 -17 5 -15 4 -15 -4 -3 -6 8 -8 18 -5 23
3 5 -1 13 -8 18 -10 6 -11 9 -1 9 7 0 4 8 -9 21 -20 20 -21 46 -1 42 6 -1 7 7
4 20 -5 18 -7 19 -10 5 -2 -10 -7 -18 -10 -18 -7 0 -72 157 -76 183 -1 6 -5
17 -9 24 -9 14 2 45 14 37 5 -3 9 3 9 12 0 10 -3 14 -7 11 -3 -4 -12 -2 -20 5
-11 8 -12 7 -7 -6 3 -9 2 -16 -4 -16 -5 0 -15 21 -23 48 -7 26 -19 58 -26 72
-7 14 -13 32 -13 42 0 22 44 102 48 89 6 -19 22 -12 22 9 l0 20 20 -20 c11
-11 20 -24 20 -28z m-3094 -24 c41 -21 45 -25 40 -51 -6 -32 -125 -346 -251
-662 -190 -478 -185 -462 -132 -513 l33 -32 581 2 c537 3 582 4 600 21 11 9
23 15 26 12 4 -3 5 -2 2 1 -2 4 3 20 11 36 10 18 13 41 9 57 -7 31 -150 337
-322 690 -68 140 -122 256 -120 257 2 3 125 -18 192 -32 15 -3 38 -43 87 -147
140 -297 198 -415 246 -494 46 -76 50 -87 49 -145 -1 -71 20 -122 75 -181 l33
-35 -22 -48 c-13 -27 -23 -61 -23 -76 0 -28 -29 -46 -51 -32 -7 4 -9 3 -6 -3
7 -11 -23 -23 -60 -23 -14 0 -23 6 -23 16 0 11 -6 14 -22 9 -17 -6 -20 -4 -14
10 5 14 4 16 -7 7 -10 -9 -201 -12 -681 -12 l-667 -1 -37 29 c-20 15 -56 40
-79 55 -24 15 -43 34 -43 42 0 27 228 609 397 1015 50 118 93 223 96 233 8 23
27 22 83 -5z m1134 -142 c21 -23 22 -56 2 -56 -17 0 -54 49 -49 64 9 22 20 20
47 -8z m800 6 c0 -23 -21 -50 -40 -52 -50 -7 -53 15 -7 48 38 27 47 28 47 4z
m2230 -563 l0 -570 -47 3 c-44 3 -48 5 -48 30 -1 15 4 26 10 25 5 -1 11 14 12
33 1 19 -1 26 -4 15 -14 -54 -23 -32 -23 58 0 64 4 97 11 97 7 0 9 -20 5 -62
-3 -42 -2 -54 3 -38 15 43 13 110 -4 110 -12 0 -14 56 -15 393 0 384 0 393 20
410 12 10 25 15 29 12 5 -3 12 2 15 11 4 10 2 13 -7 9 -6 -4 -1 3 13 14 14 11
26 21 28 21 1 0 2 -257 2 -571z m-1750 424 c-21 -43 -48 -100 -60 -128 -12
-27 -42 -90 -65 -140 -41 -86 -106 -228 -125 -270 -5 -11 -11 -27 -12 -35 -2
-8 -6 -17 -9 -20 -15 -12 -59 -112 -54 -120 4 -6 1 -10 -6 -10 -8 0 -9 -3 0
-13 13 -16 5 -28 -15 -20 -12 4 -15 1 -14 -22 0 -3 -8 -14 -18 -25 -10 -11
-30 -44 -43 -73 -13 -28 -28 -54 -32 -55 -4 -2 -3 -10 4 -18 7 -8 9 -17 5 -21
-3 -3 -6 -1 -6 5 0 21 -16 13 -28 -14 -9 -19 -9 -30 0 -47 6 -12 11 -23 10
-24 -1 -2 -2 -10 -2 -18 0 -13 11 -15 62 -13 38 2 63 8 66 16 2 7 -5 12 -17
12 -12 0 -21 5 -21 10 0 6 14 10 30 10 25 0 30 -4 30 -25 0 -27 1 -28 24 -19
9 3 16 15 16 25 0 10 5 19 10 19 6 0 10 7 10 16 0 27 29 41 69 35 20 -3 280
-4 578 -1 297 3 539 2 536 -2 -2 -5 1 -8 6 -8 6 0 11 6 11 13 0 13 40 52 40
39 0 -4 7 2 15 12 15 19 15 19 15 -3 0 -13 -4 -20 -11 -16 -6 4 -13 -2 -16
-13 -3 -12 -12 -23 -22 -25 -9 -3 1 -5 21 -6 20 0 40 4 43 9 3 6 15 10 26 10
10 0 19 -4 19 -10 0 -14 43 -12 59 3 11 10 13 9 8 -5 -3 -10 -2 -20 3 -23 11
-7 13 -45 4 -69 -6 -14 -87 -16 -821 -16 l-814 0 5 30 c2 17 0 30 -5 30 -6 0
-7 5 -4 10 3 6 2 10 -2 10 -5 0 -17 15 -27 34 l-18 33 38 49 c51 68 74 121 74
178 0 42 10 66 70 171 38 67 86 157 105 199 52 115 187 400 192 405 2 3 22 8
46 12 23 3 45 7 48 8 4 0 -10 -34 -31 -76z m1344 -80 c5 -11 0 -22 -11 -31
-14 -10 -15 -14 -5 -21 10 -6 11 -14 5 -27 -61 -124 -132 -221 -169 -230 -78
-20 -108 160 -36 216 36 29 42 25 36 -24 -6 -37 -3 -46 13 -55 15 -7 25 -6 43
6 19 13 21 21 16 55 -5 31 -2 48 15 74 32 53 80 72 93 37z m-867 -65 c52 -35
78 -87 78 -160 -1 -78 -33 -122 -165 -221 -106 -79 -180 -144 -180 -159 0 -4
52 -8 116 -8 l115 0 28 31 c29 32 55 33 89 7 26 -22 3 -106 -36 -127 -29 -15
-407 -17 -426 -2 -29 24 -28 49 4 115 33 70 85 120 232 223 118 83 137 117
103 183 -18 35 -43 50 -82 50 -50 0 -71 -25 -98 -114 -29 -95 -40 -112 -76
-121 -21 -5 -34 0 -60 23 -31 27 -34 36 -34 84 0 132 123 231 281 225 57 -2
79 -7 111 -29z m-2482 -58 c14 -28 39 -59 55 -68 l29 -18 -27 -16 c-34 -20
-126 -40 -147 -32 -31 12 -28 51 9 119 21 36 41 65 46 65 5 0 21 -23 35 -50z
m-321 -75 c35 -19 71 -44 81 -55 18 -20 18 -21 -1 -40 -21 -20 -149 -58 -160
-47 -4 4 1 16 11 27 16 18 17 26 7 71 -13 56 -15 79 -6 79 3 0 34 -16 68 -35z
m406 -155 c0 -11 9 -43 20 -72 32 -84 29 -90 -32 -82 -29 4 -60 11 -70 15 -22
12 -63 98 -51 110 8 8 108 47 126 48 4 1 7 -8 7 -19z m-264 -86 c-3 -9 -6 -31
-6 -50 0 -29 -7 -39 -52 -72 -81 -59 -85 -59 -93 -2 -4 28 -15 56 -26 66 -10
9 -19 21 -19 25 0 12 120 48 164 48 31 1 37 -2 32 -15z m3155 -17 c-10 -9 -11
-8 -5 6 3 10 9 15 12 12 3 -3 0 -11 -7 -18z m-2951 -145 c58 -47 -63 -108
-140 -69 -18 9 -25 21 -25 42 0 23 6 31 25 36 49 14 117 10 140 -9z m2910 -8
c6 -14 14 -22 20 -19 5 3 10 1 10 -4 0 -27 -30 -4 -43 32 -10 27 2 20 13 -9z
m33 -59 c4 -8 3 -16 -1 -19 -4 -3 -9 4 -9 15 -2 23 3 25 10 4z m100 -4 c3 -13
1 -18 -9 -14 -7 2 -10 11 -7 19 7 19 10 18 16 -5z m-4449 -26 c-4 -9 2 -18 17
-24 27 -11 15 -14 -18 -5 -13 4 -20 10 -17 15 3 5 -3 9 -13 10 -13 1 -11 3 7
9 14 4 26 8 27 9 1 1 0 -6 -3 -14z m4383 -32 c0 -10 -4 -10 -16 -1 -9 7 -18
13 -20 15 -2 1 5 1 16 0 11 0 20 -7 20 -14z m-4396 -11 c-7 -2 -18 1 -23 6 -8
8 -4 9 13 5 13 -4 18 -8 10 -11z m4491 -14 c0 -7 2 -17 2 -23 1 -5 5 -16 10
-23 4 -7 5 -16 2 -19 -9 -9 -14 -1 -20 30 -2 14 -7 31 -11 37 -3 5 -1 10 4 10
6 0 12 -6 13 -12z m-95 -13 c0 -8 -4 -15 -9 -15 -10 0 -11 14 -1 23 9 10 10 9
10 -8z m-4242 -53 c-5 -5 -45 22 -45 31 0 4 11 0 24 -10 13 -10 23 -19 21 -21z
m4237 -8 c-9 -16 -10 -14 -9 8 1 15 6 23 11 18 4 -4 4 -16 -2 -26z m-4283 -14
c-7 -5 -18 -6 -24 -2 -6 4 -3 8 8 10 9 2 17 9 18 15 0 7 3 7 6 -2 3 -7 -1 -17
-8 -21z m2978 8 c-3 -8 -6 -5 -6 6 -1 11 2 17 5 13 3 -3 4 -12 1 -19z m-2933
-31 c7 -6 6 -7 -4 -4 -8 2 -16 12 -17 23 -2 13 -1 15 4 4 3 -8 11 -19 17 -23z
m2999 -37 c-6 -6 -33 30 -33 44 0 6 9 0 20 -14 10 -14 16 -27 13 -30z m-2922
-114 c37 -8 94 -28 128 -45 65 -33 201 -154 201 -178 0 -19 -60 -216 -69 -225
-3 -4 -20 18 -36 50 -41 78 -130 166 -202 200 -77 36 -174 37 -250 3 -60 -26
-136 -102 -177 -176 -16 -27 -38 -63 -49 -79 -13 -19 -16 -31 -9 -34 26 -8 65
-48 78 -78 28 -68 7 -149 -47 -181 -16 -10 -29 -23 -29 -29 0 -7 23 -57 50
-112 80 -161 181 -236 315 -237 58 0 81 5 135 31 76 36 149 105 192 181 21 38
34 51 41 44 6 -6 13 -62 15 -125 l4 -115 -49 -48 c-57 -56 -142 -104 -227
-128 -78 -23 -216 -16 -301 14 -175 62 -321 226 -374 421 -28 101 -28 100 23
100 105 0 166 98 118 190 -21 39 -89 80 -134 80 -33 0 -33 1 -9 71 45 132 116
233 214 306 139 103 281 134 448 99z m5089 -62 c0 -4 -13 -22 -30 -41 l-30
-34 0 -455 0 -454 27 -11 c32 -12 81 -3 107 20 40 35 46 64 46 226 0 102 4
155 11 155 5 0 30 -5 55 -11 l44 -11 0 -275 c0 -259 -1 -275 -17 -267 -10 5
-135 10 -279 12 l-261 3 24 47 c24 47 24 48 23 387 -1 187 -4 405 -7 484 l-6
145 -40 43 -40 43 187 0 c102 0 186 -3 186 -6z m-2165 -95 c115 -21 203 -88
248 -188 30 -66 29 -170 -2 -233 -22 -47 -91 -108 -138 -122 -13 -4 -23 -12
-23 -18 0 -10 44 -90 156 -283 29 -50 73 -114 98 -142 25 -28 46 -54 46 -57 0
-3 -65 -6 -144 -6 l-144 0 -11 33 c-6 17 -53 119 -104 225 -85 179 -94 192
-117 190 -25 -3 -25 -4 -32 -128 -10 -170 -3 -246 28 -287 l25 -33 -161 0
-161 0 26 43 25 44 0 420 0 420 -30 38 c-16 21 -30 41 -30 44 0 4 57 13 128
20 126 13 242 27 253 29 3 1 32 -3 64 -9z m-2085 -25 c104 -33 193 -132 233
-258 19 -62 22 -93 22 -241 0 -142 -3 -180 -20 -230 -45 -138 -149 -240 -277
-271 -63 -16 -73 -16 -135 0 -123 30 -228 123 -272 241 -28 75 -44 220 -38
340 8 152 53 262 140 342 102 94 216 120 347 77z m2905 12 c140 -37 236 -133
281 -281 15 -47 18 -93 18 -210 0 -221 -32 -324 -131 -423 -74 -74 -147 -106
-243 -106 -99 -1 -178 34 -250 110 -83 88 -114 177 -126 365 -12 190 28 336
119 435 55 60 106 91 182 110 66 16 90 16 150 0z m-2305 -22 c0 -3 -14 -23
-32 -45 -32 -39 -32 -40 -18 -92 22 -88 108 -368 114 -374 12 -12 24 12 69
138 28 77 44 136 40 150 -17 79 -47 149 -73 174 -55 53 -49 55 165 55 107 0
195 -2 195 -4 0 -3 -12 -18 -26 -33 -32 -33 -70 -113 -79 -165 -6 -31 3 -62
50 -182 32 -80 61 -146 66 -146 16 0 119 367 119 422 0 14 -14 38 -35 58 -19
18 -32 37 -29 42 6 9 344 11 344 2 0 -3 -14 -24 -32 -46 -23 -30 -47 -88 -90
-227 -63 -199 -141 -502 -158 -610 -6 -36 -13 -81 -16 -98 l-5 -33 -99 0 c-73
0 -100 3 -101 13 0 6 0 38 1 70 1 49 -5 72 -48 165 -27 59 -55 124 -62 145 -7
22 -16 35 -20 30 -4 -4 -30 -72 -59 -151 -41 -116 -51 -155 -51 -207 l0 -65
-102 0 -103 0 -1 93 c0 80 -9 125 -67 347 -97 375 -136 478 -201 539 -14 13
-23 28 -20 32 6 10 364 13 364 3z m3040 1 c0 -2 -13 -24 -29 -47 l-29 -43 -4
-385 -3 -385 61 0 c72 0 79 6 140 118 21 37 41 64 45 60 4 -5 9 -81 11 -171
l3 -162 -273 0 -273 0 33 41 33 41 3 397 c3 424 0 452 -48 496 -45 41 -30 45
155 45 96 0 175 -2 175 -5z m-1838 -1223 c43 -27 100 -91 92 -104 -3 -4 2 -15
10 -24 21 -20 19 -67 -3 -124 -12 -31 -23 -45 -34 -44 -14 2 -15 -1 -6 -12 11
-13 6 -18 -14 -15 -5 1 -6 -2 -3 -7 13 -22 -155 -134 -253 -168 -112 -40 -274
-29 -381 26 -49 25 -112 79 -105 90 3 5 0 12 -6 16 -8 4 -9 3 -5 -4 4 -7 2
-12 -4 -12 -7 0 -14 9 -17 20 -3 11 -9 20 -14 20 -13 0 -41 60 -35 76 3 8 2
13 -3 10 -13 -8 -23 58 -15 98 3 19 13 37 21 40 8 3 11 10 8 16 -7 12 44 76
57 73 4 -2 7 3 6 10 -2 6 3 11 10 9 8 -1 11 2 7 8 -10 16 23 24 40 10 12 -10
15 -9 15 5 0 15 23 16 298 13 291 -3 298 -3 334 -26z m-127 -688 c22 -8 53
-16 69 -19 36 -8 34 -10 -97 -88 -195 -117 -236 -115 -460 27 -97 60 -97 56 3
75 25 5 52 12 62 15 12 6 30 -10 72 -62 67 -83 100 -101 145 -78 31 17 131
129 131 148 0 6 7 7 18 3 9 -4 35 -14 57 -21z"/>
<path d="M5350 8200 c0 -25 14 -54 140 -280 54 -96 132 -240 175 -320 138
-258 266 -491 370 -675 55 -99 134 -239 174 -311 47 -85 91 -149 123 -180 49
-49 49 -49 116 -49 65 0 77 4 447 171 209 95 441 198 515 230 74 31 144 65
154 75 18 16 18 20 3 42 -8 13 -103 73 -219 137 -111 62 -228 127 -258 145
-266 158 -597 357 -920 554 -212 129 -414 252 -450 274 -36 22 -112 70 -170
107 -165 106 -200 120 -200 80z m748 -688 c14 -9 22 -24 22 -42 0 -59 -62 -83
-132 -52 -54 24 -70 43 -66 79 2 22 9 29 29 31 23 3 26 0 22 -20 -2 -13 0 -28
4 -35 14 -20 56 -25 78 -9 18 13 18 16 4 33 -38 43 -17 51 39 15z m533 -238
c107 -54 261 -193 275 -249 8 -31 -17 -72 -57 -93 -34 -18 -116 -10 -174 18
-93 45 -257 199 -271 255 -25 99 96 136 227 69z m-402 -53 c83 -7 106 -24 84
-60 -11 -18 -4 -28 70 -95 116 -105 135 -119 176 -125 30 -5 37 -11 39 -33 4
-37 -36 -78 -78 -78 -44 0 -68 15 -84 54 -15 35 -176 176 -280 245 -71 47 -96
71 -96 94 0 17 5 19 48 12 26 -5 80 -11 121 -14z"/>
<path d="M6523 7233 c-25 -9 -12 -31 65 -104 94 -92 132 -119 165 -119 61 0
46 37 -47 118 -102 89 -152 118 -183 105z"/>
<path d="M4819 8162 c-209 -136 -1061 -654 -1839 -1117 -140 -84 -256 -159
-258 -168 -2 -9 6 -18 20 -22 13 -4 183 -84 378 -178 597 -286 666 -314 735
-301 60 11 112 73 199 239 131 250 389 715 678 1223 222 390 230 417 87 324z
m-706 -760 c50 -22 67 -45 67 -92 0 -69 -63 -145 -163 -197 -44 -23 -68 -28
-152 -31 -113 -5 -170 7 -213 43 -38 32 -45 69 -23 121 39 88 129 155 238 174
75 14 194 5 246 -18z m-613 -376 l0 -34 63 -6 c34 -3 113 -8 176 -11 96 -5
117 -3 132 10 10 10 30 15 46 13 38 -4 42 -43 11 -104 -32 -65 -57 -79 -111
-66 -23 6 -118 14 -210 17 l-168 7 -45 -42 c-46 -43 -60 -46 -78 -17 -8 13 1
38 39 113 56 108 93 154 124 154 17 0 21 -6 21 -34z"/>
<path d="M3760 7288 c-36 -19 -38 -55 -5 -68 35 -13 261 -13 286 0 27 15 25
56 -3 64 -13 4 -75 9 -138 12 -85 4 -121 2 -140 -8z"/>
<path d="M7065 6480 c-3 -6 1 -7 9 -4 18 7 21 14 7 14 -6 0 -13 -4 -16 -10z"/>
<path d="M6435 6250 l-20 -9 20 0 c11 0 27 4 35 9 13 9 13 10 0 9 -8 0 -24 -4
-35 -9z"/>
<path d="M6341 6024 c0 -11 3 -14 6 -6 3 7 2 16 -1 19 -3 4 -6 -2 -5 -13z"/>
<path d="M2590 4265 c0 -8 2 -15 4 -15 2 0 6 7 10 15 3 8 1 15 -4 15 -6 0 -10
-7 -10 -15z"/>
<path d="M2664 4252 c9 -15 48 -23 43 -9 -2 7 -14 14 -26 15 -13 2 -21 -1 -17
-6z"/>
<path d="M2594 4228 c-4 -6 -3 -8 4 -4 6 3 16 0 24 -7 7 -8 20 -16 28 -20 12
-4 11 -6 -2 -6 -10 -1 -18 -5 -18 -11 0 -13 17 -13 26 1 4 8 9 7 15 -2 4 -7
11 -10 15 -6 8 7 -38 47 -68 59 -9 4 -20 2 -24 -4z"/>
<path d="M2598 4203 c6 -2 12 -9 12 -14 0 -6 -4 -7 -10 -4 -5 3 -10 2 -10 -3
0 -23 26 -18 28 4 1 17 -3 24 -16 23 -10 0 -12 -3 -4 -6z"/>
<path d="M5321 7155 c-85 -72 -78 -287 14 -377 89 -89 205 -3 205 152 0 88
-23 153 -75 206 -51 54 -95 59 -144 19z"/>
<path d="M7066 6051 c-23 -26 -55 -206 -63 -357 -7 -144 -2 -177 30 -172 17 2
25 14 34 53 17 68 63 384 63 432 0 60 -31 81 -64 44z"/>
<path d="M5193 5714 c-3 -8 3 -26 13 -39 126 -153 138 -166 147 -143 10 28
-15 97 -46 125 -12 11 -41 32 -65 47 -37 23 -43 24 -49 10z"/>
<path d="M4999 5696 c-20 -14 -44 -40 -53 -59 -17 -37 -22 -127 -7 -127 19 0
101 143 101 177 0 18 -1 33 -3 33 -1 0 -19 -11 -38 -24z"/>
<path d="M5069 5529 c-35 -49 -38 -133 -7 -178 12 -19 28 -36 33 -38 9 -3 10
235 1 244 -2 2 -14 -10 -27 -28z"/>
<path d="M5220 4900 c0 -5 5 -10 10 -10 6 0 10 5 10 10 0 6 -4 10 -10 10 -5 0
-10 -4 -10 -10z"/>
<path d="M4955 4613 c-46 -45 -42 -112 8 -161 25 -25 41 -32 65 -30 17 1 29 4
27 7 -3 2 1 11 8 19 10 13 9 14 -3 7 -12 -6 -13 -5 -2 6 18 19 15 26 -15 34
-40 10 -83 44 -83 65 0 31 18 33 73 6 81 -40 105 -41 179 -12 73 29 98 32 98
12 0 -17 -38 -48 -80 -66 -17 -7 -30 -20 -30 -30 0 -21 31 -50 54 -50 30 0 75
30 91 60 17 33 20 102 5 131 -15 27 -70 25 -128 -6 -59 -31 -103 -31 -170 0
-64 29 -75 30 -97 8z"/>
<path d="M3012 5708 c-24 -24 -14 -65 25 -99 38 -33 226 -129 254 -129 21 0
39 20 39 46 0 40 -41 74 -153 129 -133 64 -149 69 -165 53z"/>
<path d="M6800 5102 c0 -5 7 -13 16 -16 10 -4 14 -1 12 6 -5 15 -28 23 -28 10z"/>
<path d="M6820 4860 c0 -11 5 -20 10 -20 6 0 10 9 10 20 0 11 -4 20 -10 20 -5
0 -10 -9 -10 -20z"/>
<path d="M6860 4709 c0 -5 5 -7 10 -4 6 3 10 8 10 11 0 2 -4 4 -10 4 -5 0 -10
-5 -10 -11z"/>
<path d="M6906 4613 c-4 -9 -4 -18 -1 -21 3 -3 5 -2 5 3 0 4 7 2 15 -5 12 -10
15 -9 15 8 0 25 -26 36 -34 15z"/>
<path d="M7763 4730 c0 -41 2 -58 4 -37 2 20 2 54 0 75 -2 20 -4 3 -4 -38z"/>
<path d="M7712 4690 c0 -19 2 -27 5 -17 2 9 2 25 0 35 -3 9 -5 1 -5 -18z"/>
<path d="M7772 4380 c0 -14 2 -19 5 -12 2 6 2 18 0 25 -3 6 -5 1 -5 -13z"/>
<path d="M5675 3711 l-40 -6 -3 -134 c-3 -151 -3 -151 68 -151 89 0 140 54
140 149 0 109 -58 159 -165 142z"/>
<path d="M3531 3684 c-44 -41 -51 -93 -51 -373 0 -270 5 -291 74 -325 36 -17
43 -18 80 -5 72 25 76 42 76 349 0 146 -5 281 -10 301 -14 48 -40 70 -93 76
-38 5 -48 1 -76 -23z"/>
<path d="M6468 3681 l-33 -29 -3 -299 c-2 -282 -1 -300 17 -330 44 -70 155
-63 186 11 12 28 15 90 15 298 0 149 -5 279 -10 300 -22 79 -111 104 -172 49z"/>
<path d="M5070 2593 c-36 -15 -69 -32 -75 -38 -5 -6 -32 -28 -59 -50 -28 -23
-56 -55 -66 -79 -21 -48 -33 -129 -17 -119 6 4 8 0 4 -10 -4 -10 -1 -17 6 -17
7 0 18 -9 24 -19 7 -11 33 -32 58 -47 65 -38 160 -44 234 -15 30 11 58 18 63
15 4 -3 8 0 8 6 0 6 16 18 35 26 42 17 48 18 39 2 -4 -7 -3 -8 5 -4 6 4 9 11
6 15 -2 5 5 17 17 27 14 12 18 14 13 4 -5 -8 6 -1 25 17 18 18 37 30 41 27 5
-3 11 7 15 21 3 14 11 25 16 25 17 0 3 102 -16 115 -8 7 -14 15 -11 18 3 4 2
5 -1 3 -3 -3 -31 11 -61 31 -127 81 -192 91 -303 46z m-24 -95 c4 -7 3 -8 -4
-4 -7 4 -12 5 -12 2 0 -3 10 -10 21 -17 17 -9 20 -8 13 3 -6 10 -5 11 7 2 8
-6 63 -48 122 -93 97 -72 112 -86 85 -82 -5 0 -8 -3 -8 -9 0 -5 -11 -17 -25
-26 -24 -15 -26 -14 -160 86 -122 92 -134 104 -118 115 10 7 21 11 25 9 5 -3
8 -1 8 5 0 5 8 12 18 14 9 3 18 5 19 6 1 0 5 -4 9 -11z"/>
<path d="M5175 2370 c-3 -5 1 -10 10 -10 9 0 13 5 10 10 -3 6 -8 10 -10 10 -2
0 -7 -4 -10 -10z"/>
<path d="M4746 2322 c-2 -4 -1 -14 4 -22 7 -11 9 -9 7 8 -1 24 -3 26 -11 14z"/>
</g>
</svg>
