<svg  fill="currentColor" width="100" height="100">
  <path d="M0 0 C0.92248535 0.54188965 1.8449707 1.0837793 2.79541016 1.64208984 C7.02107976 4.14593752 11.1777048 6.69458874 15.234375 9.46484375 C19.32909561 12.23506891 23.58179145 14.58429593 27.93847656 16.91503906 C32.57291749 19.42462344 37.0943316 22.12139997 41.625 24.8125 C42.96111328 25.60140625 42.96111328 25.60140625 44.32421875 26.40625 C49.26818582 29.3344365 54.17388314 32.31531569 59.0546875 35.34765625 C63.59639879 38.15186218 68.17718314 40.85601047 72.828125 43.47265625 C73.41800201 43.80491211 74.00787903 44.13716797 74.6156311 44.47949219 C77.0152112 45.82873712 79.41611676 47.1754379 81.82226562 48.51293945 C105.09440773 61.4707232 105.09440773 61.4707232 108.75 72.4375 C108.87067899 75.3674658 108.93545549 78.27534986 108.95532227 81.20629883 C108.96522186 82.10464447 108.97512146 83.00299011 108.98532104 83.92855835 C109.01703702 86.91718896 109.0417836 89.90583442 109.06640625 92.89453125 C109.08701717 94.9931424 109.1080146 97.09174978 109.12937927 99.19035339 C109.1734219 103.61312686 109.21429668 108.03591413 109.25268555 112.45874023 C109.30112029 118.03594055 109.35483383 123.61307193 109.41065407 129.19020271 C109.64438133 152.60626098 109.83305654 176.02012 109.75 199.4375 C112.39 199.7675 115.03 200.0975 117.75 200.4375 C117.74887207 201.27933838 117.74774414 202.12117676 117.74658203 202.98852539 C117.75656372 206.14078608 117.79330864 209.29133108 117.84765625 212.44311523 C117.86571749 213.80173977 117.87340274 215.1605465 117.87011719 216.51928711 C117.60457628 225.74904509 117.60457628 225.74904509 121.69140625 233.62890625 C122.48333374 234.33382202 122.48333374 234.33382202 123.29125977 235.05297852 C128.04098198 239.56104122 128.35488898 247.29776961 128.75 253.4375 C128.8719256 258.45196751 128.89415349 263.46229404 128.88037109 268.47802734 C128.87496465 270.82786366 128.88036654 273.17751289 128.88671875 275.52734375 C128.88605873 277.02604209 128.88477916 278.52474031 128.8828125 280.0234375 C128.88483673 280.72342865 128.88686096 281.4234198 128.88894653 282.1446228 C128.87421636 285.1887807 128.72088056 287.52485833 127.75 290.4375 C126.94107803 290.41893951 126.13215607 290.40037903 125.29872131 290.3812561 C117.55045845 290.21649398 109.80573554 290.12306219 102.05585575 290.10328102 C98.07422724 290.09077457 94.09644179 290.0538214 90.1159668 289.95410156 C68.77083655 289.44207959 54.2131532 291.20823279 36.16403198 303.77191162 C33.08867647 305.89378757 29.92081638 307.70039739 26.65625 309.515625 C24.85278439 310.57055713 23.05062619 311.62772863 21.25 312.6875 C20.26773438 313.26266357 19.28546875 313.83782715 18.2734375 314.43041992 C13.85448476 317.0195599 9.44128323 319.61835795 5.03125 322.22265625 C-1.92658561 326.33109992 -8.89871151 330.40633867 -15.9375 334.375 C-16.58525391 334.74085205 -17.23300781 335.1067041 -17.90039062 335.48364258 C-19.67711543 336.47990419 -21.46335222 337.45914528 -23.25 338.4375 C-24.27222656 339.00726563 -25.29445313 339.57703125 -26.34765625 340.1640625 C-29.46316153 341.53102713 -31.61393137 341.87042423 -35 341.875 C-35.94359375 341.89433594 -36.8871875 341.91367187 -37.859375 341.93359375 C-46.88551472 340.61294888 -54.61709889 335.69208623 -62.3125 331.0625 C-64.43765781 329.80275514 -66.56399762 328.54500253 -68.69140625 327.2890625 C-69.77566895 326.6487207 -70.85993164 326.00837891 -71.97705078 325.34863281 C-77.19289741 322.30300791 -82.46996673 319.36997605 -87.75 316.4375 C-96.32018074 311.66632559 -104.83981954 306.81739693 -113.3125 301.875 C-114.29347656 301.30330078 -115.27445312 300.73160156 -116.28515625 300.14257812 C-121.13216914 297.305056 -125.91556148 294.42115837 -130.58544922 291.29882812 C-132.391115 290.19650458 -132.391115 290.19650458 -135.3125 290.5 C-137.30206328 291.134967 -139.28138783 291.80278319 -141.25 292.5 C-152.4091758 295.71993839 -164.39545295 293.27404443 -174.6171875 288.28125 C-176.19664559 287.39320127 -177.73155339 286.42625593 -179.25 285.4375 C-179.25 284.7775 -179.25 284.1175 -179.25 283.4375 C-180.13558594 283.04691406 -180.13558594 283.04691406 -181.0390625 282.6484375 C-189.80776006 277.84579396 -194.64859245 266.74114466 -197.40234375 257.62109375 C-198.42497928 253.23569085 -198.55689537 248.98804042 -198.5 244.5 C-198.49105713 243.70440674 -198.48211426 242.90881348 -198.47290039 242.08911133 C-198.23009387 229.83430164 -194.48415196 218.9102152 -186.25 209.4375 C-185.59 209.4375 -184.93 209.4375 -184.25 209.4375 C-183.23565121 206.39445364 -183.12290493 204.34800484 -183.11869812 201.16403198 C-183.11468994 200.07066025 -183.11068176 198.97728851 -183.10655212 197.8507843 C-183.10708084 196.65076279 -183.10760956 195.45074127 -183.1081543 194.21435547 C-183.10282072 192.2744562 -183.09748117 190.33455695 -183.09191763 188.39465833 C-183.08671963 186.30801551 -183.08380661 184.221379 -183.08133507 182.13473129 C-183.07541826 177.78013912 -183.05886988 173.42562841 -183.03999329 169.07107544 C-183.03365577 167.57906156 -183.02733014 166.08704763 -183.02101612 164.59503365 C-183.01785031 163.84776898 -183.0146845 163.10050431 -183.01142275 162.33059525 C-182.96939074 152.19404425 -182.9363935 142.05753075 -182.92407227 131.92089844 C-182.91567456 125.08236575 -182.89311878 118.24403449 -182.8547166 111.40560257 C-182.83500908 107.78966738 -182.82253346 104.17403293 -182.82755089 100.55804062 C-182.833089 96.51741912 -182.80771652 92.4775423 -182.7800293 88.43701172 C-182.78663071 87.24913559 -182.79323212 86.06125946 -182.80003357 84.83738708 C-182.69421881 75.41418971 -180.50787583 68.07046906 -174.04492188 61.05078125 C-170.56197003 57.92029352 -166.569243 55.71745896 -162.5 53.4375 C-161.54915527 52.88989014 -160.59831055 52.34228027 -159.61865234 51.77807617 C-156.50243702 49.98596237 -153.37634491 48.21187358 -150.25 46.4375 C-145.78802787 43.88131266 -141.3312817 41.31609176 -136.875 38.75 C-135.76286133 38.11126953 -134.65072266 37.47253906 -133.50488281 36.81445312 C-127.06298388 33.10321317 -120.71625484 29.28836542 -114.45043945 25.28881836 C-106.97869032 20.56076162 -99.27453911 16.22647455 -91.60473633 11.83081055 C-86.1663357 8.70994851 -80.75391933 5.5744972 -75.4375 2.25 C-69.85117556 -1.22900041 -64.19160562 -4.57192836 -58.5 -7.875 C-57.6236792 -8.39151123 -56.7473584 -8.90802246 -55.84448242 -9.44018555 C-33.96946911 -22.0416677 -19.80807704 -11.65200458 0 0 Z M-46.375 -2.375 C-47.59633608 -1.6353868 -48.81769162 -0.89580573 -50.0390625 -0.15625 C-50.70583008 0.25625 -51.37259766 0.66875 -52.05957031 1.09375 C-55.33616707 3.10382452 -58.65401982 5.0423323 -61.96826172 6.98950195 C-64.80536249 8.65754988 -67.63766702 10.33347965 -70.46875 12.01171875 C-76.0595229 15.32536157 -81.65434372 18.63211233 -87.25 21.9375 C-89.08073556 23.01952043 -90.91146472 24.1015517 -92.7421875 25.18359375 C-96.4338101 27.36512632 -100.12663032 29.54461284 -103.8203125 31.72265625 C-113.38949863 37.36720734 -122.94876902 43.02705893 -132.46533203 48.76000977 C-137.27090625 51.65489378 -142.08838535 54.52812355 -146.91796875 57.3828125 C-148.05194092 58.05586426 -149.18591309 58.72891602 -150.35424805 59.42236328 C-152.57557379 60.74056177 -154.79959646 62.05422883 -157.02661133 63.36279297 C-158.03876709 63.96494629 -159.05092285 64.56709961 -160.09375 65.1875 C-161.44243164 65.98414063 -161.44243164 65.98414063 -162.81835938 66.796875 C-166.46142651 69.254848 -168.84501208 71.22253623 -170.25 75.4375 C-170.34524305 77.26708783 -170.3816825 79.09996113 -170.38562012 80.93202209 C-170.39341492 82.64563934 -170.39341492 82.64563934 -170.40136719 84.39387512 C-170.40233398 85.64843002 -170.40330078 86.90298492 -170.40429688 88.19555664 C-170.40900598 89.52951251 -170.41426864 90.86346653 -170.42004395 92.19741821 C-170.43220197 95.07190214 -170.4421854 97.94638309 -170.45103455 100.82087898 C-170.46684324 105.37324013 -170.49842877 109.92540336 -170.53430176 114.47764587 C-170.54033023 115.24646766 -170.54635871 116.01528945 -170.55256987 116.80740887 C-170.57768805 119.9796577 -170.60325327 123.15190288 -170.62879848 126.3241483 C-170.70037221 135.32120643 -170.75721368 144.31783857 -170.77148438 153.31518555 C-170.78293254 160.46429219 -170.82608502 167.61242919 -170.90580797 174.7611112 C-170.94676411 178.54115124 -170.97196552 182.31978337 -170.95860291 186.10005379 C-170.94634485 189.66256745 -170.97634567 193.22232001 -171.03752136 196.78430557 C-171.05969676 198.70023252 -171.03792414 200.61651401 -171.0144043 202.53242493 C-171.17554478 209.27962728 -172.07051115 212.95867894 -176.67199707 218.0297699 C-177.46829781 218.78601874 -178.26459854 219.54226759 -179.0850296 220.32143307 C-182.14036719 223.30775512 -183.73693592 226.49183012 -185.25 230.4375 C-185.86875 232.0153125 -185.86875 232.0153125 -186.5 233.625 C-188.55743563 244.08363112 -188.04177265 255.05809871 -182.515625 264.35546875 C-176.37534109 273.17320204 -169.93688829 279.80298854 -159.25 282.4375 C-151.93792613 283.23697736 -145.45619365 282.68191362 -138.56640625 280.09375 C-133.83466573 278.75322318 -130.59654854 279.03362757 -126.33203125 281.4140625 C-124.90074727 282.28366994 -123.47769014 283.16693996 -122.0625 284.0625 C-120.65360467 284.93173458 -119.24342464 285.79888997 -117.83203125 286.6640625 C-117.09839355 287.11499268 -116.36475586 287.56592285 -115.60888672 288.03051758 C-112.16647748 290.08377823 -108.64432879 291.97947323 -105.11791992 293.88378906 C-100.21721235 296.53877357 -95.36111657 299.273401 -90.5 302 C-89.42741943 302.60134766 -88.35483887 303.20269531 -87.24975586 303.82226562 C-83.91574116 305.69265593 -80.58265493 307.56468804 -77.25 309.4375 C-76.18346191 310.03675293 -75.11692383 310.63600586 -74.01806641 311.25341797 C-70.94842537 312.97946748 -67.88017348 314.7079564 -64.8125 316.4375 C-63.89694336 316.95256104 -62.98138672 317.46762207 -62.03808594 317.99829102 C-56.81350207 320.94875148 -51.65674622 323.98278923 -46.55444336 327.140625 C-41.6679038 329.8906301 -37.88897499 331.15356032 -32.25 330.4375 C-24.21608051 326.95501126 -16.64610595 322.45909279 -9.125 318 C-7.02248256 316.76373235 -4.91960511 315.52807679 -2.81640625 314.29296875 C-1.20016357 313.34236572 -1.20016357 313.34236572 0.44873047 312.37255859 C5.92990289 309.15973707 11.43289751 305.98496247 16.9375 302.8125 C18.01354492 302.1922998 19.08958984 301.57209961 20.19824219 300.93310547 C27.33581644 296.82225143 34.47727926 292.71818744 41.625 288.625 C42.49278076 288.12726074 43.36056152 287.62952148 44.25463867 287.11669922 C45.45503784 286.43051514 45.45503784 286.43051514 46.6796875 285.73046875 C47.37304199 285.3336792 48.06639648 284.93688965 48.78076172 284.52807617 C49.43061035 284.16818604 50.08045898 283.8082959 50.75 283.4375 C51.33686081 283.09067169 51.92372162 282.74384338 52.52836609 282.38650513 C55.24542787 281.22587036 57.31299854 281.17685271 60.26538086 281.1628418 C61.37010239 281.15330978 62.47482391 281.14377777 63.61302185 281.13395691 C64.80162308 281.13486832 65.9902243 281.13577972 67.21484375 281.13671875 C68.44030411 281.13243362 69.66576447 281.1281485 70.92835999 281.12373352 C73.51986066 281.11799069 76.11137745 281.1174896 78.70288086 281.12182617 C82.66873666 281.12498505 86.63384587 281.10152873 90.59960938 281.07617188 C93.11718656 281.0738988 95.63476575 281.07319542 98.15234375 281.07421875 C99.33892075 281.065009 100.52549774 281.05579926 101.74803162 281.04631042 C103.40984215 281.05565361 103.40984215 281.05565361 105.10522461 281.06518555 C106.56272377 281.06424141 106.56272377 281.06424141 108.04966736 281.0632782 C111.22232621 281.50295666 113.06794915 282.74106651 115.75 284.4375 C116.74 284.4375 117.73 284.4375 118.75 284.4375 C118.82429915 279.11729978 118.87867247 273.79740331 118.91479492 268.47680664 C118.92985755 266.66783383 118.95031177 264.8588974 118.97631836 263.05004883 C119.0128132 260.44603485 119.02975157 257.8425048 119.04296875 255.23828125 C119.05845261 254.43288406 119.07393646 253.62748688 119.08988953 252.79768372 C119.09126833 248.17063501 118.73354767 245.2047137 115.75 241.4375 C112.33673752 238.89943303 111.11087656 238.4375 106.75 238.4375 C106.75 228.5375 106.75 218.6375 106.75 208.4375 C101.27174919 207.9902864 101.27174919 207.9902864 98.75 209.4375 C98.75092179 208.89271248 98.75184359 208.34792496 98.75279331 207.78662872 C98.77506859 194.40920128 98.79145298 181.03177717 98.80181217 167.65433502 C98.806993 161.18458863 98.81400154 154.71485579 98.82543945 148.24511719 C98.83644133 141.98160167 98.8423128 135.71809904 98.84487724 129.45457458 C98.84670076 127.08523862 98.85026007 124.71590323 98.85573006 122.34657288 C98.8726333 114.70925352 98.83448564 107.07434174 98.75 99.4375 C98.74262188 98.32833221 98.73524376 97.21916443 98.72764206 96.0763855 C98.69731074 92.79137312 98.63192522 89.50886023 98.55639648 86.22460938 C98.55105676 85.24020119 98.54571703 84.255793 98.54021549 83.24155426 C98.33786879 76.70327715 97.09728408 73.36637929 92.75 68.4375 C90.5520742 66.5999682 90.5520742 66.5999682 88.15234375 65.33203125 C87.27916504 64.83002197 86.40598633 64.3280127 85.50634766 63.81079102 C84.57612793 63.29572998 83.6459082 62.78066895 82.6875 62.25 C80.69352093 61.11023091 78.70004119 59.96958786 76.70703125 58.828125 C75.70494629 58.26029297 74.70286133 57.69246094 73.67041016 57.10742188 C69.36137216 54.64346769 65.119377 52.07317241 60.875 49.5 C53.5385247 45.07874846 46.15514978 40.74261448 38.75 36.4375 C28.02428497 30.20017574 17.37484611 23.8447032 6.75 17.4375 C-0.65462029 12.97494134 -8.066513 8.52510999 -15.49072266 4.09521484 C-17.89510452 2.65071362 -20.2841451 1.18508038 -22.66796875 -0.29296875 C-23.88254191 -1.02909249 -25.09735748 -1.76481651 -26.3125 -2.5 C-27.29347656 -3.10714844 -28.27445313 -3.71429688 -29.28515625 -4.33984375 C-35.69078037 -6.98142524 -40.53855582 -5.99478955 -46.375 -2.375 Z " fill="#FEFEFE" transform="translate(287.25,90.5625)"/>
  <path d="M0 0 C1.9670206 1.04723809 3.82635558 2.19386312 5.69848633 3.40258789 C6.4175415 3.84562256 7.13659668 4.28865723 7.87744141 4.74511719 C9.45728578 5.71970192 11.03254963 6.70174113 12.60375977 7.69018555 C16.18939556 9.93794913 19.8071973 12.13158849 23.42407227 14.32861328 C25.37143816 15.51169218 27.31738375 16.69711181 29.26196289 17.88476562 C36.86936603 22.52864476 44.53108352 27.07454043 52.21459961 31.59106445 C57.91436152 34.94723825 63.56954014 38.36668188 69.19848633 41.84008789 C75.56429405 45.76297867 82.00736754 49.52544303 88.51098633 53.21508789 C95.7765443 57.34208124 103.01344208 61.51167337 110.19848633 65.77758789 C111.45701416 66.51609985 111.45701416 66.51609985 112.7409668 67.26953125 C120.65554727 71.99722404 120.65554727 71.99722404 123.13598633 75.27758789 C123.13598633 76.59758789 123.13598633 77.91758789 123.13598633 79.27758789 C119.30609527 81.07988957 116.35476825 81.47381031 112.13598633 81.27758789 C112.13598633 82.26758789 112.13598633 83.25758789 112.13598633 84.27758789 C109.82598633 84.27758789 107.51598633 84.27758789 105.13598633 84.27758789 C105.13598633 84.93758789 105.13598633 85.59758789 105.13598633 86.27758789 C104.53786133 86.54571289 103.93973633 86.81383789 103.32348633 87.09008789 C101.09305939 88.13938833 101.09305939 88.13938833 99.69848633 89.90258789 C98.13598633 91.27758789 98.13598633 91.27758789 95.44848633 91.46508789 C94.30379883 91.37227539 94.30379883 91.37227539 93.13598633 91.27758789 C93.13598633 91.93758789 93.13598633 92.59758789 93.13598633 93.27758789 C92.47598633 93.27758789 91.81598633 93.27758789 91.13598633 93.27758789 C90.80598633 93.93758789 90.47598633 94.59758789 90.13598633 95.27758789 C88.81598633 95.27758789 87.49598633 95.27758789 86.13598633 95.27758789 C86.13598633 95.93758789 86.13598633 96.59758789 86.13598633 97.27758789 C84.34645447 98.11549578 82.55428938 98.94778185 80.76098633 99.77758789 C79.76325195 100.24165039 78.76551758 100.70571289 77.73754883 101.18383789 C75.13598633 102.27758789 75.13598633 102.27758789 73.13598633 102.27758789 C72.80598633 101.61758789 72.47598633 100.95758789 72.13598633 100.27758789 C72.11536133 100.85508789 72.09473633 101.43258789 72.07348633 102.02758789 C70.77217563 105.15073358 68.78918985 105.80953691 65.82739258 107.25024414 C63.80533444 108.31511515 63.80533444 108.31511515 62.13598633 111.27758789 C61.74210845 113.60146736 61.40112548 115.93552538 61.13598633 118.27758789 C55.09785803 119.60597612 54.11645871 119.26782408 48.13598633 116.27758789 C48.13598633 109.34758789 48.13598633 102.41758789 48.13598633 95.27758789 C46.48598633 94.61758789 44.83598633 93.95758789 43.13598633 93.27758789 C41.54614258 91.31665039 41.54614258 91.31665039 40.19848633 88.90258789 C39.44245117 87.56067383 39.44245117 87.56067383 38.67114258 86.19165039 C36.58702397 82.2355372 34.60478919 78.23350622 32.63598633 74.21899414 C30.82620254 70.67012124 28.80034439 67.29556852 26.71484375 63.90380859 C21.48818401 55.20995072 16.95773283 46.10754315 12.32348633 37.09008789 C7.13881608 27.02903349 1.80673367 17.07387893 -3.86401367 7.27758789 C-4.52401367 7.27758789 -5.18401367 7.27758789 -5.86401367 7.27758789 C-11.45876191 17.27993688 -16.982448 27.31735259 -22.42651367 37.40258789 C-26.68213417 45.28015692 -30.98185259 53.12638194 -35.39916992 60.91430664 C-37.4258534 64.48983766 -39.42583106 68.07980495 -41.42260742 71.67211914 C-42.05175049 72.80206299 -42.68089355 73.93200684 -43.32910156 75.09619141 C-44.58177103 77.34676911 -45.8323335 79.59852113 -47.08056641 81.8515625 C-47.65621338 82.88418213 -48.23186035 83.91680176 -48.82495117 84.98071289 C-49.33848145 85.90529297 -49.85201172 86.82987305 -50.38110352 87.7824707 C-51.76067179 90.10370674 -53.08240374 92.24701166 -54.86401367 94.27758789 C-57.55151367 94.52758789 -57.55151367 94.52758789 -59.86401367 94.27758789 C-60.8248975 97.16023938 -60.98072308 98.9542106 -60.96166992 101.94555664 C-60.95844727 102.83823242 -60.95522461 103.7309082 -60.9519043 104.65063477 C-60.94352539 105.5794043 -60.93514648 106.50817383 -60.92651367 107.46508789 C-60.92200195 108.40545898 -60.91749023 109.34583008 -60.9128418 110.31469727 C-60.90105993 112.63572501 -60.88460925 114.95662434 -60.86401367 117.27758789 C-63.82913096 118.84703642 -65.74033972 119.51504369 -69.11401367 119.40258789 C-70.35151367 119.36133789 -71.58901367 119.32008789 -72.86401367 119.27758789 C-73.01870117 118.19477539 -73.01870117 118.19477539 -73.17651367 117.09008789 C-74.18512914 112.96393368 -75.69407655 110.16316529 -79.11401367 107.57446289 C-86.10109743 103.64422828 -93.21683966 100.14523311 -100.48730469 96.77270508 C-106.92768605 93.7725314 -113.20452692 90.52527619 -119.43310547 87.1081543 C-122.56045092 85.40958625 -125.39007485 84.03785353 -128.86401367 83.27758789 C-128.91073212 97.81147564 -128.9458688 112.34535175 -128.96763802 126.87929916 C-128.97795108 133.6276475 -128.99201197 140.37594918 -129.01489258 147.12426758 C-129.03695398 153.63407466 -129.04857543 160.14385144 -129.05376816 166.65369415 C-129.05746979 169.14004531 -129.06469792 171.62639374 -129.07547379 174.1127243 C-129.08994509 177.58928715 -129.09199342 181.06564831 -129.09106445 184.54223633 C-129.098255 185.57513794 -129.10544556 186.60803955 -129.112854 187.67224121 C-129.11010468 188.62012512 -129.10735535 189.56800903 -129.10452271 190.5446167 C-129.10636629 191.36685604 -129.10820988 192.18909538 -129.11010933 193.03625107 C-128.83459528 195.54551834 -128.19502703 197.14218703 -126.86401367 199.27758789 C-124.94734701 200.44425456 -124.94734701 200.44425456 -122.86401367 201.27758789 C-121.87401367 201.93758789 -120.88401367 202.59758789 -119.86401367 203.27758789 C-119.67651367 205.90258789 -119.67651367 205.90258789 -119.86401367 208.27758789 C-120.85401367 207.94758789 -121.84401367 207.61758789 -122.86401367 207.27758789 C-125.2102422 207.89734637 -127.54292698 208.56945975 -129.86401367 209.27758789 C-131.86072421 209.6300906 -133.86039723 209.96673061 -135.86401367 210.27758789 C-136.6434883 201.5889737 -137.01198536 192.9875467 -136.99682617 184.26586914 C-136.99837204 183.04186905 -136.99991791 181.81786896 -137.00151062 180.55677795 C-137.00397024 176.56785568 -136.99791408 172.57899626 -136.98901367 168.59008789 C-136.98643865 167.20892334 -136.98386501 165.82775879 -136.98129272 164.44659424 C-136.96502854 156.56270995 -136.93442817 148.67894861 -136.89445972 140.79515076 C-136.87297183 136.48221144 -136.85746544 132.16930804 -136.84713364 127.85632801 C-136.82919381 120.39764412 -136.78387086 112.93990982 -136.70941162 105.48153687 C-136.68755078 102.93718188 -136.67402751 100.39274106 -136.66900635 97.84829712 C-136.65985097 94.31102655 -136.61951302 90.77544543 -136.57104492 87.23852539 C-136.5749675 86.1955983 -136.57889008 85.1526712 -136.58293152 84.07814026 C-136.4385921 77.02187153 -136.4385921 77.02187153 -133.49829102 73.21313477 C-130.62513048 71.10206741 -127.75734573 69.20124483 -124.67651367 67.40258789 C-123.7236145 66.8418457 -123.7236145 66.8418457 -122.75146484 66.26977539 C-118.54473224 63.80434824 -114.3113971 61.38487533 -110.08276367 58.95727539 C-107.94723729 57.73090392 -105.8118248 56.50433411 -103.67651367 55.27758789 C-102.57122314 54.64304688 -101.46593262 54.00850586 -100.32714844 53.35473633 C-90.82433854 47.87815078 -81.44395513 42.21364841 -72.08422852 36.49682617 C-63.79031212 31.43276197 -55.44314462 26.46563126 -47.06347656 21.54467773 C-41.66502981 18.36636702 -36.35559698 15.09488392 -31.09838867 11.68774414 C-28.17154437 9.84055744 -25.16401835 8.17714397 -22.11401367 6.54321289 C-20.49620864 5.63319756 -18.91587287 4.65537049 -17.36401367 3.63696289 C-16.51838867 3.08524414 -15.67276367 2.53352539 -14.80151367 1.96508789 C-14.04741211 1.45333008 -13.29331055 0.94157227 -12.51635742 0.41430664 C-8.30889462 -1.3888917 -4.26184231 -1.65170811 0 0 Z M5.13598633 9.27758789 C6.81079815 15.38088988 9.90939889 20.64866948 12.94848633 26.15258789 C14.13228612 28.31523553 15.315874 30.47799919 16.49926758 32.64086914 C17.10464355 33.74382324 17.71001953 34.84677734 18.33374023 35.9831543 C20.58717133 40.10233598 22.81211306 44.23648925 25.03662109 48.37133789 C29.95697896 57.50453155 34.94113542 66.60149082 40.01098633 75.65258789 C40.52209961 76.57305908 41.03321289 77.49353027 41.55981445 78.44189453 C47.03675905 88.44261481 47.03675905 88.44261481 54.13598633 97.27758789 C61.30299874 97.81739967 66.02389645 96.54084989 72.44848633 93.48071289 C73.72912964 92.89564972 73.72912964 92.89564972 75.03564453 92.29876709 C77.74335947 91.05747323 80.4395641 89.79319632 83.13598633 88.52758789 C84.94515866 87.692685 86.75504954 86.85933729 88.56567383 86.02758789 C91.91009862 84.48936344 95.24972982 82.94155831 98.58520508 81.3840332 C103.07744774 79.29230536 107.601023 77.27474581 112.13598633 75.27758789 C110.78901788 71.23668254 109.05754636 70.81725594 105.37036133 68.76586914 C104.78111877 68.43395065 104.19187622 68.10203217 103.58477783 67.76005554 C101.68992461 66.6946565 99.78842168 65.64187802 97.88598633 64.59008789 C95.4201834 63.21520223 92.9572719 61.83521073 90.49536133 60.45336914 C89.88043823 60.10899811 89.26551514 59.76462708 88.63195801 59.40982056 C83.40112318 56.46444628 78.29740786 53.34332558 73.19946289 50.17285156 C68.5553747 47.29971986 63.84622397 44.54040959 59.13598633 41.77758789 C51.07772338 37.03305423 43.07789026 32.21473405 35.13598633 27.27758789 C33.03225145 25.9852181 30.92807209 24.69357159 28.82348633 23.40258789 C25.13595393 21.13680911 21.45927485 18.85604395 17.79614258 16.55102539 C17.06371338 16.09066895 16.33128418 15.6303125 15.57666016 15.15600586 C14.13384333 14.24815522 12.69224063 13.3383717 11.25195312 12.42651367 C8.39178949 10.25810498 8.39178949 10.25810498 5.13598633 9.27758789 Z M-18.86401367 10.27758789 C-19.38382812 10.61266357 -19.90364258 10.94773926 -20.43920898 11.29296875 C-40.91564011 24.46684951 -61.71865878 37.07651974 -82.67651367 49.46508789 C-91.40131116 54.62528436 -100.12019095 59.79448959 -108.80151367 65.02758789 C-110.24071167 65.88646606 -110.24071167 65.88646606 -111.70898438 66.76269531 C-112.59416748 67.29870361 -113.47935059 67.83471191 -114.39135742 68.38696289 C-115.16213623 68.85070312 -115.93291504 69.31444336 -116.72705078 69.79223633 C-119.05181022 71.40812076 -120.92202003 73.22398541 -122.86401367 75.27758789 C-122.14971191 75.6044458 -121.43541016 75.93130371 -120.69946289 76.26806641 C-97.23709233 87.01645543 -97.23709233 87.01645543 -88.86401367 91.27758789 C-79.41691242 96.18906253 -79.41691242 96.18906253 -69.17651367 98.71508789 C-60.62447319 95.00382504 -56.02384649 81.15393953 -51.86401367 73.21508789 C-46.79617671 63.62398276 -41.57046103 54.15463007 -36.11401367 44.77758789 C-31.48161496 36.80461011 -26.85944829 28.82884962 -22.36401367 20.77758789 C-21.88867188 19.9403418 -21.41333008 19.1030957 -20.92358398 18.24047852 C-20.29081543 17.09869141 -20.29081543 17.09869141 -19.64526367 15.93383789 C-19.2746582 15.2719043 -18.90405273 14.6099707 -18.5222168 13.92797852 C-18.30500977 13.38334961 -18.08780273 12.8387207 -17.86401367 12.27758789 C-18.35901367 11.28758789 -18.35901367 11.28758789 -18.86401367 10.27758789 Z M68.13598633 101.27758789 C67.80598633 101.93758789 67.47598633 102.59758789 67.13598633 103.27758789 C67.79598633 103.27758789 68.45598633 103.27758789 69.13598633 103.27758789 C68.80598633 102.61758789 68.47598633 101.95758789 68.13598633 101.27758789 Z " fill="#FEFEFE" transform="translate(256.864013671875,89.722412109375)"/>
  <path d="M0 0 C2.4375 0.375 2.4375 0.375 5 1 C6.35439668 3.70879335 6.06501451 6.00933268 6 9 C6.598125 8.34 7.19625 7.68 7.8125 7 C12.34337963 4.15709513 16.76540807 4.134069 22 5 C24.33984375 6.40234375 24.33984375 6.40234375 26 8 C26 8.66 26 9.32 26 10 C25.34 10 24.68 10 24 10 C24.495 13.465 24.495 13.465 25 17 C22.03 17.495 22.03 17.495 19 18 C19.94875 18.495 20.8975 18.99 21.875 19.5 C24.76364124 21.38034194 25.57127452 22.91690316 26.375 26.25 C26.58125 27.4875 26.7875 28.725 27 30 C26.12988281 30.07734375 26.12988281 30.07734375 25.2421875 30.15625 C20.4249722 30.85577962 17.58215404 31.80097893 14.5 35.6875 C11.99096447 39.47877744 11.18790948 42.49017236 11 47 C11.45375 46.175 11.9075 45.35 12.375 44.5 C12.91125 43.675 13.4475 42.85 14 42 C14.66 42 15.32 42 16 42 C16.33 42.99 16.66 43.98 17 45 C18.65 45 20.3 45 22 45 C22.66 43.02 23.32 41.04 24 39 C21.69 39 19.38 39 17 39 C17 36 17 36 18.6875 34.3125 C21.41567068 32.76407881 22.91181302 32.51239153 26 33 C28.99107583 37.48661374 28.40765912 41.78066435 28.4375 47.0625 C28.47037109 48.06216797 28.50324219 49.06183594 28.53710938 50.09179688 C28.59029217 57.53255354 26.86517805 62.6636282 23 69 C19 69 19 69 17.515625 67.6875 C16.34375 66.125 15.171875 64.5625 14 63 C13.18954386 65.31413264 12.7801105 66.49392266 13.77734375 68.7890625 C14.16019531 69.39492188 14.54304688 70.00078125 14.9375 70.625 C17.40243149 75.21131852 18.18414256 79.88032479 17 85 C15.42578125 87.28515625 15.42578125 87.28515625 13 89 C9.57421875 89.35546875 9.57421875 89.35546875 5.6875 89.1875 C1.68776462 89.03786379 -1.87273255 88.97963202 -5.83203125 89.61328125 C-6.87746094 89.74089844 -7.92289063 89.86851562 -9 90 C-12.01514619 87.46092953 -12.86905802 85.46266167 -13.9375 81.6875 C-14.00448937 77.73512715 -13.22820375 75.4898001 -11.703125 71.93359375 C-10.72868707 69.25388944 -10.78873674 66.81684343 -11 64 C-11.763125 64.99 -12.52625 65.98 -13.3125 67 C-14.61328125 68.6875 -14.61328125 68.6875 -16 70 C-16.99 70 -17.98 70 -19 70 C-24.44653547 62.55746803 -24.65376387 56.00695663 -24.375 47 C-24.36082031 45.76121094 -24.34664062 44.52242187 -24.33203125 43.24609375 C-24.18280029 34.18280029 -24.18280029 34.18280029 -23 33 C-16.72093023 33.46511628 -16.72093023 33.46511628 -14.0625 35.4375 C-13 37 -13 37 -13 39 C-15.31 39 -17.62 39 -20 39 C-19.29660434 41.50965614 -19.29660434 41.50965614 -18 44 C-15.95894361 44.88693303 -15.95894361 44.88693303 -14 45 C-13.34 44.01 -12.68 43.02 -12 42 C-11.01 42.33 -10.02 42.66 -9 43 C-10.11712561 37.18522462 -10.11712561 37.18522462 -13.6875 32.8125 C-16.75658947 31.73417127 -19.85952188 30.84551334 -23 30 C-22.8238342 24.71502591 -22.8238342 24.71502591 -22 22 C-18.9375 19.5 -18.9375 19.5 -16 18 C-17.98 17.34 -19.96 16.68 -22 16 C-22.8125 12.75 -22.8125 12.75 -23 9 C-20.41412344 5.83021583 -17.92904439 4.78108331 -14 4.125 C-10.53791473 3.82993591 -8.11225386 4.34661514 -5 6 C-5 6.99 -5 7.98 -5 9 C-2.66110011 8.11762697 -2.66110011 8.11762697 -1.9375 5.0625 C-1.628125 4.051875 -1.31875 3.04125 -1 2 C-0.67 1.34 -0.34 0.68 0 0 Z M-5 19 C-4 21 -4 21 -4 21 Z M-6 21 C-6.33 22.32 -6.66 23.64 -7 25 C-6.34 23.68 -5.68 22.36 -5 21 C-5.33 21 -5.66 21 -6 21 Z M8 21 C8.66 22.32 9.32 23.64 10 25 C10.33 24.01 10.66 23.02 11 22 C10.01 21.67 9.02 21.34 8 21 Z M-1 27 C-2.35439668 29.70879335 -2.06501451 32.00933268 -2 35 C-1.01 35.495 -1.01 35.495 0 36 C0 33.03 0 30.06 0 27 C-0.33 27 -0.66 27 -1 27 Z M7 72 C8.98 72.495 8.98 72.495 11 73 C10.175 73.78375 9.35 74.5675 8.5 75.375 C5.77011494 77.63721264 5.77011494 77.63721264 6 80 C7.65 79.67 9.3 79.34 11 79 C11.33 76.69 11.66 74.38 12 72 C10.35 72 8.7 72 7 72 Z M-8 74 C-7 77 -7 77 -7 77 Z M-1 74 C-1 74.33 -1 74.66 -1 75 C0.65 75 2.3 75 4 75 C4 74.67 4 74.34 4 74 C2.35 74 0.7 74 -1 74 Z M-7 77 C-6.67 77.99 -6.34 78.98 -6 80 C-5.01 80 -4.02 80 -3 80 C-3 79.34 -3 78.68 -3 78 C-4.32 77.67 -5.64 77.34 -7 77 Z " fill="#FEFEFE" transform="translate(249,203)"/>
  <path d="M0 0 C1.89492187 0.01353516 1.89492187 0.01353516 3.828125 0.02734375 C4.79234375 0.03894531 5.7565625 0.05054688 6.75 0.0625 C6.75 1.3825 6.75 2.7025 6.75 4.0625 C7.10486101 9.7215993 7.83422329 14.6983252 9.75 20.0625 C9.75 21.3825 9.75 22.7025 9.75 24.0625 C10.41 24.0625 11.07 24.0625 11.75 24.0625 C13.4448254 18.0115531 14.11179727 13.24296454 12.75 7.0625 C11.30269907 4.74030342 11.30269907 4.74030342 9.75 3.0625 C9.75 2.4025 9.75 1.7425 9.75 1.0625 C12.45716242 0.16011253 13.98776768 -0.05601302 16.76171875 -0.03515625 C17.89770508 -0.03032227 17.89770508 -0.03032227 19.05664062 -0.02539062 C20.23516602 -0.01282227 20.23516602 -0.01282227 21.4375 0 C22.23478516 0.00451172 23.03207031 0.00902344 23.85351562 0.01367188 C25.81904257 0.0254415 27.78453085 0.04337652 29.75 0.0625 C29.20304935 3.3221049 28.62979752 5.26974566 26.9375 8.1875 C25.67427454 10.90042707 25.73027969 11.9804059 26.4453125 14.95703125 C27.45590713 17.70966486 28.53826833 20.39282823 29.75 23.0625 C32.34723907 17.63190923 34.38132103 12.12522087 34.75 6.0625 C33.58112469 2.98899274 33.58112469 2.98899274 31.75 1.0625 C35.30926692 -0.03333341 38.66387296 -0.10405685 42.375 -0.125 C44.09589844 -0.14626953 44.09589844 -0.14626953 45.8515625 -0.16796875 C48.75 0.0625 48.75 0.0625 50.75 2.0625 C50.44707031 2.58714844 50.14414063 3.11179687 49.83203125 3.65234375 C41.9831199 18.16679213 39.22834898 35.09169767 35.75 51.0625 C32.12 51.0625 28.49 51.0625 24.75 51.0625 C24.5025 49.556875 24.255 48.05125 24 46.5 C23.04374133 41.62862433 21.44954254 38.20179856 18.75 34.0625 C18.10284867 36.1454243 17.45732834 38.22885539 16.8125 40.3125 C16.45285156 41.47265625 16.09320313 42.6328125 15.72265625 43.828125 C15.00283875 46.22173499 14.35621808 48.6376277 13.75 51.0625 C10.12 51.0625 6.49 51.0625 2.75 51.0625 C2.65525391 49.87333984 2.65525391 49.87333984 2.55859375 48.66015625 C1.6407534 39.91651922 -0.24062119 31.60417584 -2.5625 23.125 C-2.84617432 22.05967041 -3.12984863 20.99434082 -3.42211914 19.89672852 C-5.03213437 14.19524361 -6.85902776 9.43979506 -10.28588867 4.58374023 C-11.25 3.0625 -11.25 3.0625 -11.25 1.0625 C-7.49600202 -0.1414337 -3.91782588 -0.03627617 0 0 Z " fill="#FEFEFE" transform="translate(203.25,311.9375)"/>
  <path d="M0 0 C3.25696479 0.41755959 4.63443291 0.63443291 7 3 C6.63134864 7.29686603 5.37626016 10.99016707 3.77734375 14.97265625 C3.32447998 16.11025391 2.87161621 17.24785156 2.4050293 18.41992188 C1.92074463 19.62197266 1.43645996 20.82402344 0.9375 22.0625 C0.44154074 23.31148266 -0.05348701 24.56083559 -0.54760742 25.81054688 C-2.4606593 30.64552726 -4.38342217 35.47638473 -6.33398438 40.29638672 C-7.50597501 43.19278586 -8.66055639 46.09558454 -9.8125 49 C-10.34532593 50.28789429 -10.34532593 50.28789429 -10.88891602 51.60180664 C-11.35575806 52.78891235 -11.35575806 52.78891235 -11.83203125 54 C-12.24545776 55.0209375 -12.24545776 55.0209375 -12.66723633 56.0625 C-13.10653476 58.62029337 -12.21229959 59.76861056 -11 62 C-4.32886577 62.02548153 2.34225576 62.0429219 9.01342773 62.05493164 C11.28003407 62.05994161 13.5466372 62.06675141 15.81323242 62.07543945 C19.0825276 62.08765172 22.35177982 62.09326182 25.62109375 62.09765625 C26.62458359 62.10281754 27.62807343 62.10797882 28.66197205 62.11329651 C34.52508433 62.11375766 40.18486932 61.75803914 46 61 C47.18161344 56.86943418 46.8425759 54.7821844 45.0078125 50.9296875 C44.32682495 49.47405396 44.32682495 49.47405396 43.63208008 47.98901367 C43.13474365 46.96138916 42.63740723 45.93376465 42.125 44.875 C41.62701904 43.81708252 41.12903809 42.75916504 40.6159668 41.66918945 C39.09191896 38.43892605 37.5492336 35.21825075 36 32 C34.66665483 29.22562529 33.33363558 26.45112739 32.00537109 23.67431641 C31.22477967 22.04699257 30.43759177 20.42281244 29.64306641 18.80224609 C27 13.33001611 27 13.33001611 27 10 C28.41782145 10.06059066 29.83444466 10.14954123 31.25 10.25 C32.03890625 10.29640625 32.8278125 10.3428125 33.640625 10.390625 C36.84261096 11.217628 37.92732762 12.42587463 40 15 C41.34351032 17.40477058 42.57208067 19.7679771 43.75 22.25 C44.44470705 23.68388725 45.14003818 25.11747226 45.8359375 26.55078125 C46.36719238 27.65220459 46.36719238 27.65220459 46.90917969 28.77587891 C47.98337347 30.96609944 49.09631613 33.13121131 50.2265625 35.29296875 C53.78607719 42.13567054 56.59898893 48.35812141 58 56 C58.5775 56.66 59.155 57.32 59.75 58 C61.67432757 61.07892412 60.61803353 63.56481024 59.8359375 66.9765625 C59 69 59 69 56 71 C53.65825923 70.73203406 51.32454807 70.38991261 49 70 C46.75854471 69.94563733 44.51543552 69.94148179 42.27368164 69.98168945 C40.97866226 70.00113113 39.68364288 70.02057281 38.34938049 70.04060364 C37.66697359 70.05283274 36.98456669 70.06506184 36.28148079 70.07766151 C32.62602285 70.1390413 28.97023276 70.16905056 25.31445312 70.20507812 C20.68165854 70.25293254 16.04946044 70.30980778 11.41723633 70.39770508 C7.65494691 70.46827595 3.89333848 70.50898759 0.13046074 70.53032494 C-1.29490112 70.54383758 -2.72020627 70.56813153 -4.14518547 70.60381508 C-12.0792829 70.79710697 -17.71955692 70.79662561 -23.77638245 65.2931366 C-24.18017624 64.86640152 -24.58397003 64.43966644 -25 64 C-23.43335275 56.75093731 -20.81176206 50.06351599 -18.0625 43.1875 C-17.58248535 41.97731201 -17.1024707 40.76712402 -16.60791016 39.52026367 C-15.08121372 35.67644088 -13.54197538 31.83771471 -12 28 C-11.73995178 27.35212524 -11.47990356 26.70425049 -11.2119751 26.03674316 C-9.4406556 21.62553309 -7.6604972 17.21799128 -5.875 12.8125 C-5.40199463 11.64291748 -4.92898926 10.47333496 -4.44165039 9.26831055 C-4.00457764 8.19621338 -3.56750488 7.12411621 -3.1171875 6.01953125 C-2.73159668 5.07182861 -2.34600586 4.12412598 -1.94873047 3.14770508 C-1 1 -1 1 0 0 Z " fill="#FEFEFE" transform="translate(173,235)"/>
  <path d="M0 0 C1.95091152 1.43246062 3.44104673 2.68321263 4.859375 4.64453125 C4.9424573 9.29713978 3.45008844 13.29658117 1.859375 17.64453125 C-1.53675309 16.21771157 -3.29802168 14.50914142 -5.578125 11.64453125 C-9.35920616 7.21320047 -11.75659864 5.90460685 -17.578125 5.26953125 C-22.02511341 5.73763529 -23.76764215 6.70214196 -27.140625 9.64453125 C-29.31983749 12.54183664 -31.27017773 15.54038472 -33.140625 18.64453125 C-32.65207031 19.04542969 -32.16351563 19.44632812 -31.66015625 19.859375 C-29.73878949 22.1166105 -29.76548985 23.28245163 -29.828125 26.20703125 C-29.83199219 26.99207031 -29.83585937 27.77710938 -29.83984375 28.5859375 C-30.140625 30.64453125 -30.140625 30.64453125 -32.140625 32.64453125 C-31.88939403 37.16668876 -29.65157584 39.99960261 -27.140625 43.64453125 C-27.140625 44.30453125 -27.140625 44.96453125 -27.140625 45.64453125 C-22.29955931 48.14853075 -18.64505559 49.01771299 -13.140625 48.64453125 C-7.81020501 46.86772459 -5.06701119 43.55251399 -1.65625 39.2890625 C-1.15609375 38.74636719 -0.6559375 38.20367187 -0.140625 37.64453125 C0.519375 37.64453125 1.179375 37.64453125 1.859375 37.64453125 C3.87002295 41.66582715 3.59675657 46.29398 2.859375 50.64453125 C-0.41618163 55.63775783 -6.4291535 58.43421943 -12.140625 59.64453125 C-21.45088472 60.76176242 -28.51102238 58.66668069 -35.890625 52.95703125 C-42.22922026 47.10375767 -44.69020718 39.95146967 -46.140625 31.64453125 C-43.500625 30.65453125 -40.860625 29.66453125 -38.140625 28.64453125 C-37.80636765 26.27078264 -37.80636765 26.27078264 -38.140625 23.64453125 C-40.56145145 21.2237048 -42.79572504 20.24183481 -46.140625 19.64453125 C-44.71484866 11.20993856 -40.96860912 4.36421576 -34.2265625 -0.94921875 C-23.33238882 -8.2936055 -10.70414805 -6.77799156 0 0 Z " fill="#FEFEFE" transform="translate(152.140625,308.35546875)"/>
  <path d="M0 0 C3.57968608 3.4467975 4.98707248 6.41392534 5.12109375 11.453125 C4.8986261 15.78765602 4.46368561 17.7665199 1.625 21.1875 C0.779375 21.868125 -0.06625 22.54875 -0.9375 23.25 C-1.5975 23.91 -2.2575 24.57 -2.9375 25.25 C-1.52648467 27.8157565 -0.10895884 30.37753729 1.3125 32.9375 C1.70824219 33.65873047 2.10398437 34.37996094 2.51171875 35.12304688 C4.75328914 39.14684946 7.15822927 42.65962862 10.0625 46.25 C10.0625 46.91 10.0625 47.57 10.0625 48.25 C5.1125 48.25 0.1625 48.25 -4.9375 48.25 C-8.27083333 41.58333333 -11.60416667 34.91666667 -14.9375 28.25 C-15.16217972 30.26908127 -15.36644891 32.29043815 -15.5625 34.3125 C-15.67851562 35.43785156 -15.79453125 36.56320312 -15.9140625 37.72265625 C-16.1070715 41.89804147 -16.1070715 41.89804147 -13.9375 48.25 C-19.5475 48.25 -25.1575 48.25 -30.9375 48.25 C-30.2775 46.6 -29.6175 44.95 -28.9375 43.25 C-28.64257512 41.17095122 -28.64257512 41.17095122 -28.67871094 39.08984375 C-28.66925446 37.9133728 -28.66925446 37.9133728 -28.65960693 36.71313477 C-28.6636554 35.87967529 -28.66770386 35.04621582 -28.671875 34.1875 C-28.66996155 33.31859131 -28.6680481 32.44968262 -28.66607666 31.55444336 C-28.66471911 29.72216501 -28.66838545 27.88987691 -28.67675781 26.05761719 C-28.68746348 23.259545 -28.67684798 20.46211481 -28.6640625 17.6640625 C-28.66538417 15.88020692 -28.66794672 14.09635174 -28.671875 12.3125 C-28.66782654 11.47904053 -28.66377808 10.64558105 -28.65960693 9.78686523 C-28.69414096 5.49052324 -28.94543992 2.16686093 -30.9375 -1.75 C-21.91538528 -6.26105736 -7.99211009 -6.19796293 0 0 Z M-15.9375 5.25 C-15.9375 9.21 -15.9375 13.17 -15.9375 17.25 C-13.5943787 16.99438677 -11.25906597 16.65729228 -8.9375 16.25 C-7.37811022 13.13122044 -7.5767166 10.67744229 -7.9375 7.25 C-11.70068854 4.19399742 -11.70068854 4.19399742 -15.9375 5.25 Z " fill="#FEFEFE" transform="translate(291.9375,314.75)"/>
  <path d="M0 0 C4.29434982 3.86057711 6.65005632 8.35641972 7.20507812 14.13525391 C7.30452307 16.55186763 7.32200692 18.9564402 7.3125 21.375 C7.32861328 22.18710937 7.34472656 22.99921875 7.36132812 23.8359375 C7.36756632 31.62119864 5.58290675 38.25289011 0 44 C-4.26211681 47.40969344 -8.67984062 47.96330925 -14 48 C-20.11756373 47.26167334 -22.8467232 44.637025 -26.55859375 40.01171875 C-31.37012232 33.29644175 -31.70792157 24.0542775 -31 16 C-29.72710945 8.49111357 -26.81851366 2.98373761 -21 -2 C-13.59732835 -5.70133583 -6.63934649 -4.51921904 0 0 Z M-16 7 C-16.31234892 10.0764574 -16.31234892 10.0764574 -16.265625 13.6875 C-16.26753845 14.34580811 -16.2694519 15.00411621 -16.27142334 15.68237305 C-16.2727845 17.0743854 -16.26909283 18.46641047 -16.26074219 19.85839844 C-16.250041 21.99182589 -16.26063906 24.12441131 -16.2734375 26.2578125 C-16.27211589 27.60937686 -16.26955347 28.9609407 -16.265625 30.3125 C-16.26336914 31.54613281 -16.26111328 32.77976562 -16.25878906 34.05078125 C-16.30769767 37.12069578 -16.30769767 37.12069578 -14 39 C-10.93008319 38.83557723 -10.93008319 38.83557723 -8 38 C-5.71871971 33.43743942 -6.81497379 27.07192821 -6.8125 22.0625 C-6.79413086 20.11053711 -6.79413086 20.11053711 -6.77539062 18.11914062 C-6.77345703 16.87455078 -6.77152344 15.62996094 -6.76953125 14.34765625 C-6.76336792 12.63074585 -6.76336792 12.63074585 -6.75708008 10.87915039 C-6.78339853 7.80188724 -6.78339853 7.80188724 -9 5 C-12.45795783 4.56775527 -13.47975609 4.47975609 -16 7 Z " fill="#FEFEFE" transform="translate(331,315)"/>
  <path d="M0 0 C5.10340809 4.11107874 8.76370726 8.76212711 9.55639648 15.36450195 C9.62673814 18.28514055 9.67086925 21.20353147 9.6875 24.125 C9.72037109 25.13240234 9.75324219 26.13980469 9.78710938 27.17773438 C9.83606339 34.00904511 8.74825451 38.57227348 4.25 43.8125 C0.16435584 47.73600128 -3.70111765 49.67015234 -9.41015625 50.01171875 C-14.839033 49.54949385 -19.21066384 47.27081847 -23.125 43.5625 C-27.04713786 36.92503593 -28.31048795 31.03448015 -28.25 23.4375 C-28.24427979 22.60331543 -28.23855957 21.76913086 -28.23266602 20.90966797 C-28.01548673 13.4114983 -26.58536355 7.46808088 -21 2.14453125 C-14.46151423 -2.88615716 -7.486604 -3.23285173 0 0 Z M-11.75 6.8125 C-14.04551015 10.4759468 -14.22597994 14.16683801 -14.4375 18.375 C-14.47584961 19.08229248 -14.51419922 19.78958496 -14.55371094 20.51831055 C-15.48492557 30.57468803 -15.48492557 30.57468803 -12.3671875 39.62109375 C-10.72944273 41.10490974 -10.72944273 41.10490974 -8.125 40.5625 C-5.8187593 40.03504355 -5.8187593 40.03504355 -4.75 38.8125 C-4.53190244 34.55501574 -4.56420839 30.29204276 -4.56469727 26.02954102 C-4.56251257 23.88733 -4.54436488 21.74563529 -4.52539062 19.60351562 C-4.52245641 18.2473976 -4.5204718 16.89127712 -4.51953125 15.53515625 C-4.51542236 14.29515869 -4.51131348 13.05516113 -4.50708008 11.77758789 C-4.43788195 8.6932793 -4.43788195 8.6932793 -6.75 6.8125 C-9.33354218 6.64562552 -9.33354218 6.64562552 -11.75 6.8125 Z " fill="#FEFEFE" transform="translate(184.75,313.1875)"/>
  <path d="M0 0 C29.04 0 58.08 0 88 0 C87.08285321 3.66858718 85.96182397 6.26090983 84.1875 9.5625 C83.68605469 10.51253906 83.18460937 11.46257812 82.66796875 12.44140625 C80.35810496 15.98463993 78.26102319 17.59876535 74.25 18.875 C70.71481342 19.01096871 68.42704529 18.12687591 65.20703125 16.75390625 C62.72749187 15.90691315 60.54879596 15.717038 57.9375 15.5625 C54.42790578 15.32101416 52.25408437 14.80747583 49.3125 12.875 C46.10843865 10.69140819 46.10843865 10.69140819 42.375 11.0625 C39.06319888 11.80479089 39.06319888 11.80479089 36.75 13.4375 C33.17203831 15.47043278 29.75971604 15.87672727 25.71875 16.47265625 C22.96851437 16.91398824 22.96851437 16.91398824 20.40625 18.0625 C16.72140616 19.49815345 13.74055681 19.14273629 10 18 C4.94007993 14.35215065 2.27125448 8.70229849 0 3 C0 2.01 0 1.02 0 0 Z " fill="#FEFEFE" transform="translate(207,187)"/>
  <path d="M0 0 C6.27 0 12.54 0 19 0 C18.67 1.32 18.34 2.64 18 4 C17.88973143 5.52587285 17.82475328 7.0554046 17.79467773 8.58496094 C17.77473251 9.48559265 17.75478729 10.38622437 17.73423767 11.31414795 C17.70916893 12.75966034 17.70916893 12.75966034 17.68359375 14.234375 C17.66281265 15.22753723 17.64203156 16.22069946 17.62062073 17.24395752 C17.55530251 20.41256882 17.49632261 23.58126211 17.4375 26.75 C17.39429793 28.89974802 17.35068309 31.04948778 17.30664062 33.19921875 C17.19963929 38.46605949 17.09784009 43.73298155 17 49 C20.72614153 47.88145414 20.72614153 47.88145414 23 45 C23.2322646 42.28737884 23.41936235 39.59226874 23.5625 36.875 C23.60568359 36.12089844 23.64886719 35.36679687 23.69335938 34.58984375 C23.7994832 32.72678112 23.90025001 30.86341476 24 29 C25.98 29.33 27.96 29.66 30 30 C30 39.24 30 48.48 30 58 C24.18375 58.0309375 24.18375 58.0309375 18.25 58.0625 C17.03344727 58.071604 15.81689453 58.08070801 14.56347656 58.09008789 C13.11666504 58.09383423 13.11666504 58.09383423 11.640625 58.09765625 C10.65610352 58.10289307 9.67158203 58.10812988 8.65722656 58.11352539 C6.27130486 58.01159103 4.27835419 57.68303357 2 57 C2.33 56.01 2.66 55.02 3 54 C3.10176169 52.40533544 3.14836893 50.80684156 3.16113281 49.20898438 C3.17554413 47.75232361 3.17554413 47.75232361 3.19024658 46.26623535 C3.19449646 45.21931519 3.19874634 44.17239502 3.203125 43.09375 C3.20882507 42.01750366 3.21452515 40.94125732 3.22039795 39.83239746 C3.22984581 37.55608097 3.23638108 35.27975081 3.24023438 33.00341797 C3.24996165 29.51375698 3.28099633 26.02467953 3.3125 22.53515625 C3.31902789 20.32552434 3.3242792 18.11588821 3.328125 15.90625 C3.3404718 14.85932983 3.3528186 13.81240967 3.36553955 12.73376465 C3.36253845 11.76265747 3.35953735 10.79155029 3.35644531 9.79101562 C3.36009094 8.93624634 3.36373657 8.08147705 3.36749268 7.20080566 C2.92029738 4.52268443 1.97732649 3.77372172 0 2 C0 1.34 0 0.68 0 0 Z " fill="#FEFEFE" transform="translate(370,306)"/>
  <path d="M0 0 C-0.6338348 4.00769418 -1.90374962 7.29413925 -3.6171875 10.96484375 C-4.14183594 12.09470703 -4.66648437 13.22457031 -5.20703125 14.38867188 C-5.75746094 15.55978516 -6.30789063 16.73089844 -6.875 17.9375 C-7.41769531 19.10474609 -7.96039063 20.27199219 -8.51953125 21.47460938 C-12.55626441 30.1353266 -12.55626441 30.1353266 -14.64892578 34.21313477 C-16.10433754 36.90249028 -16.10433754 36.90249028 -16.5 39.6875 C-17.10039964 42.46434834 -18.02508076 43.02508076 -20 45 C-21.13822826 47.29190759 -22.05584251 49.61712632 -23 52 C-23.66 52 -24.32 52 -25 52 C-24.67 53.32 -24.34 54.64 -24 56 C-23.01 56 -22.02 56 -21 56 C-21 55.34 -21 54.68 -21 54 C-19.35 54 -17.7 54 -16 54 C-16 52.35 -16 50.7 -16 49 C-15.01 49.66 -14.02 50.32 -13 51 C-10.44027283 51.29719668 -10.44027283 51.29719668 -7.53466797 51.24291992 C-6.41696014 51.24599655 -5.29925232 51.24907318 -4.14767456 51.25224304 C-2.94136383 51.24505753 -1.7350531 51.23787201 -0.4921875 51.23046875 C1.3623555 51.22978142 1.3623555 51.22978142 3.25436401 51.2290802 C6.53871489 51.22528274 9.82287249 51.21227257 13.10717773 51.19561768 C16.45556875 51.18214714 19.8039266 51.18534193 23.15234375 51.18554688 C25.68750201 51.18063226 28.22265869 51.17480419 30.7578125 51.16796875 C32.57335129 51.16629951 32.57335129 51.16629951 34.42556763 51.16459656 C35.53697113 51.15821671 36.64837463 51.15183685 37.79345703 51.14526367 C39.26880417 51.13954597 39.26880417 51.13954597 40.7739563 51.13371277 C42.97246357 51.24868206 42.97246357 51.24868206 44 50 C44.04092937 47.66702567 44.04241723 45.33294775 44 43 C44.99 43 45.98 43 47 43 C47.495 46.96 47.495 46.96 48 51 C49.98 51 51.96 51 54 51 C54.38133299 52.9914056 54.71325582 54.99279077 55 57 C51.35693446 60.64306554 40.10557076 59.11025609 35.34439945 59.11614132 C33.09286175 59.11321542 30.84136914 59.10552679 28.58984375 59.09765625 C27.0108698 59.09578796 25.43189527 59.094366 23.85292053 59.09336853 C19.72496908 59.0895757 15.59705359 59.07977353 11.46911621 59.06866455 C7.24569179 59.0583804 3.02226149 59.05385599 -1.20117188 59.04882812 C-9.4674643 59.03814793 -17.73372766 59.021111 -26 59 C-29.015625 52.265625 -29.015625 52.265625 -28.875 49.875 C-28 48 -28 48 -26.5625 45.75 C-24.80706043 42.96058318 -24.80706043 42.96058318 -24.125 39.2890625 C-23.12080383 35.1029297 -21.43850833 31.42202339 -19.4375 27.625 C-18.7246965 26.24117574 -18.01248136 24.8570483 -17.30078125 23.47265625 C-16.92775879 22.75223145 -16.55473633 22.03180664 -16.17041016 21.28955078 C-14.93408724 18.87106177 -13.73482456 16.43678465 -12.54296875 13.99609375 C-12.13957275 13.17351074 -11.73617676 12.35092773 -11.32055664 11.50341797 C-10.53336301 9.89623767 -9.74989559 8.28722605 -8.97045898 6.67626953 C-5.67522513 0 -5.67522513 0 0 0 Z " fill="#FEFEFE" transform="translate(297,246)"/>
  <path d="M0 0 C1.27230469 0.00902344 2.54460937 0.01804687 3.85546875 0.02734375 C5.31919922 0.04474609 5.31919922 0.04474609 6.8125 0.0625 C7.1425 1.0525 7.4725 2.0425 7.8125 3.0625 C7.4825 3.7225 7.1525 4.3825 6.8125 5.0625 C6.65558093 7.83181368 6.55406866 10.57984107 6.49609375 13.3515625 C6.47531265 14.16998627 6.45453156 14.98841003 6.43312073 15.83163452 C6.36765188 18.45016966 6.30875274 21.06880639 6.25 23.6875 C6.20681224 25.46094807 6.16319786 27.23438581 6.11914062 29.0078125 C6.01197324 33.35927046 5.91069831 37.71083077 5.8125 42.0625 C11.29985148 40.51824535 12.84746768 38.93362452 15.8125 34.0625 C16.4725 34.0625 17.1325 34.0625 17.8125 34.0625 C17.8125 39.6725 17.8125 45.2825 17.8125 51.0625 C8.5725 51.0625 -0.6675 51.0625 -10.1875 51.0625 C-9.5275 49.7425 -8.8675 48.4225 -8.1875 47.0625 C-6.86738579 39.91699501 -7.00360967 32.80350352 -7 25.5625 C-6.98775391 24.26957031 -6.97550781 22.97664063 -6.96289062 21.64453125 C-6.9532732 15.40602949 -6.97246797 9.9253357 -9.1875 4.0625 C-9.5175 3.0725 -9.8475 2.0825 -10.1875 1.0625 C-6.62704823 -0.12431726 -3.74941663 -0.03439832 0 0 Z " fill="#FEFEFE" transform="translate(351.1875,311.9375)"/>
  <path d="M0 0 C2.01930038 -0.00969885 4.03757924 -0.04073319 6.05664062 -0.07226562 C7.33539063 -0.07742188 8.61414063 -0.08257812 9.93164062 -0.08789062 C11.68613525 -0.10190918 11.68613525 -0.10190918 13.47607422 -0.11621094 C18.42966513 0.43866421 20.86365396 2.29932089 24.03320312 6.05273438 C25.96475294 9.84154362 25.93548968 11.23806985 24.65820312 15.24023438 C21.97640555 21.3487733 15.90020947 25.32371603 9.80664062 27.73632812 C2.24708954 29.50938647 -5.61693881 29.16306825 -12.34179688 25.24023438 C-16.52023268 22.48626532 -18.61810454 19.95770814 -20.34179688 15.24023438 C-20.99270378 11.66382278 -21.14366873 8.66271203 -19.32226562 5.43164062 C-14.08659142 -1.16435981 -7.76864047 0.02260516 0 0 Z M-6.34179688 5.24023438 C-4.85679687 6.23023438 -4.85679687 6.23023438 -3.34179688 7.24023438 C-1.43648419 8.53893521 0.4584358 9.85294672 2.34570312 11.17773438 C3.33957031 11.86738281 4.3334375 12.55703125 5.35742188 13.26757812 C6.49630859 14.24404297 6.49630859 14.24404297 7.65820312 15.24023438 C7.65820312 16.23023438 7.65820312 17.22023438 7.65820312 18.24023438 C12.07709926 16.89001611 14.00165656 14.97907769 16.65820312 11.24023438 C14.45245882 6.56924644 11.43058876 4.07046887 6.65820312 2.24023438 C1.38825373 1.59304761 -1.79033434 2.57596363 -6.34179688 5.24023438 Z M-9.34179688 7.24023438 C-11.84478122 10.17852034 -12.81110627 12.41926199 -13.34179688 16.24023438 C-11.91867188 17.44679688 -11.91867188 17.44679688 -10.46679688 18.67773438 C-9.933125 19.13019531 -9.39945313 19.58265625 -8.84960938 20.04882812 C-5.68873701 22.54640862 -3.30594433 22.47341952 0.65820312 22.24023438 C3.44386372 21.32766132 3.44386372 21.32766132 5.65820312 20.24023438 C1.99979619 17.26777874 -1.74966944 14.46056333 -5.57226562 11.70507812 C-7.34179688 10.24023438 -7.34179688 10.24023438 -9.34179688 7.24023438 Z " fill="#FEFEFE" transform="translate(250.341796875,370.759765625)"/>
  <path d="M0 0 C4.03150752 5.26335704 5.60147805 10.4287542 5.1875 17.0625 C4.48306 21.88116936 3.19175992 25.04165579 0.25 28.9375 C-3.31232852 31.58853517 -5.98368701 32.15543805 -10.3125 31.875 C-14.45612166 31.21341335 -16.88842164 30.13573464 -19.75 26.9375 C-22.94077785 21.43615887 -23.76004956 16.24095745 -22.75 9.9375 C-20.79517458 4.46088594 -18.70283597 0.16631057 -13.75 -3.0625 C-8.82025291 -5.27238663 -4.05826348 -3.04369761 0 0 Z M-10.75 3.9375 C-12.95808542 5.30233958 -12.95808542 5.30233958 -14.75 7.9375 C-15.49145743 12.56575532 -15.25707036 16.62979223 -13.5625 21 C-11.85398436 23.10099513 -11.85398436 23.10099513 -9.25 23.9375 C-6.7864004 24.13425892 -6.7864004 24.13425892 -5 23 C-2.71768895 19.23418677 -2.26255582 15.17452063 -3.1875 10.9296875 C-4.38541993 7.67624587 -5.36299591 6.14450219 -8.4375 4.5 C-9.200625 4.314375 -9.96375 4.12875 -10.75 3.9375 Z " fill="#FEFEFE" transform="translate(272.75,146.0625)"/>
  <path d="M0 0 C3.125 0.3125 3.125 0.3125 4.7265625 1.97460938 C6.33552117 4.66444671 6.96261696 6.96969983 7.625 10.03125 C7.8725 11.12824219 8.12 12.22523438 8.375 13.35546875 C8.875 15.66015625 9.375 17.96484375 9.875 20.26953125 C10.1225 21.36652344 10.37 22.46351563 10.625 23.59375 C10.8415625 24.59470703 11.058125 25.59566406 11.28125 26.62695312 C12.15597374 29.41108541 13.37364314 31.02093588 15.125 33.3125 C14.8125 36.0625 14.8125 36.0625 14.125 38.3125 C11.6000398 37.97128916 9.60934216 37.61745617 7.4375 36.25 C5.35879765 33.18143938 4.89438762 29.92270345 4.125 26.3125 C3.94324219 26.90417969 3.76148438 27.49585938 3.57421875 28.10546875 C0.59216162 37.47983295 0.59216162 37.47983295 -1.875 40.3125 C-5.0625 40.625 -5.0625 40.625 -7.875 40.3125 C-10.02299851 35.96536016 -10.18625922 31.94301136 -10.125 27.1875 C-10.11823242 26.43557373 -10.11146484 25.68364746 -10.10449219 24.90893555 C-9.66508306 1.05055251 -9.66508306 1.05055251 0 0 Z M-1.875 8.3125 C-4.51037118 16.21861355 -4.05481101 24.08115163 -3.875 32.3125 C0.27414051 28.16335949 0.00232775 20.11862763 0.25 14.453125 C0.25 12.40582596 0.19436013 10.35862379 0.125 8.3125 C-0.535 8.3125 -1.195 8.3125 -1.875 8.3125 Z " fill="#FEFEFE" transform="translate(346.875,196.6875)"/>
  <path d="M0 0 C2.76400039 2.33212533 2.95831531 3.72383894 3.5 7.3125 C2.55982245 14.24630943 -1.45717477 17.73939805 -6.8125 21.9375 C-8.2010813 22.96817617 -9.59447421 23.99255341 -11 25 C-8.08347826 25.16681109 -8.08347826 25.16681109 -5 25 C-4.34 24.34 -3.68 23.68 -3 23 C-0.4375 22.8125 -0.4375 22.8125 2 23 C3 24 3 24 3.1875 27.4375 C3 31 3 31 1 33 C-1.30664062 33.24291992 -1.30664062 33.24291992 -4.15625 33.23046875 C-5.17847656 33.22853516 -6.20070312 33.22660156 -7.25390625 33.22460938 C-8.32511719 33.21236328 -9.39632812 33.20011719 -10.5 33.1875 C-11.57121094 33.18685547 -12.64242187 33.18621094 -13.74609375 33.18554688 C-21.71939772 33.14030114 -21.71939772 33.14030114 -24 32 C-23.43966312 25.83629431 -19.95056851 21.74815102 -15.515625 17.7734375 C-8.45693463 12 -8.45693463 12 -6 12 C-5.67 10.02 -5.34 8.04 -5 6 C-6.96756452 6.03122943 -6.96756452 6.03122943 -9 7 C-10.3045656 9.99615946 -10.3045656 9.99615946 -11 13 C-13.375 13.125 -13.375 13.125 -16 13 C-18 11 -18 11 -18.4375 8.1875 C-17.85227674 3.92373056 -16.31603288 2.6528263 -13 0 C-8.52599325 -2.78113933 -4.66396701 -1.94836717 0 0 Z " fill="#FEFEFE" transform="translate(244,144)"/>
  <path d="M0 0 C1.546875 -0.04253906 1.546875 -0.04253906 3.125 -0.0859375 C6.68954956 0.48555278 7.80427229 1.56793279 10 4.375 C11.32116291 8.33848873 11.2911935 11.58895529 9.5 15.4296875 C5.98792333 19.98441193 0.71371888 23.15213174 -4 26.375 C-1.23749964 27.75625018 0.94731099 27.56579306 4 27.375 C4.66 26.715 5.32 26.055 6 25.375 C8.625 25.75 8.625 25.75 11 26.375 C10.74438677 28.7181213 10.40729228 31.05343403 10 33.375 C7.62384014 34.56307993 6.1488258 34.50414522 3.5 34.5078125 C2.1696875 34.50974609 2.1696875 34.50974609 0.8125 34.51171875 C-0.115625 34.50785156 -1.04375 34.50398438 -2 34.5 C-3.3921875 34.50580078 -3.3921875 34.50580078 -4.8125 34.51171875 C-5.699375 34.51042969 -6.58625 34.50914062 -7.5 34.5078125 C-8.3146875 34.50668457 -9.129375 34.50555664 -9.96875 34.50439453 C-12 34.375 -12 34.375 -14 33.375 C-13.73732567 26.93947888 -11.65759321 23.74336365 -7 19.375 C0.12334802 13.375 0.12334802 13.375 3 13.375 C3 11.395 3 9.415 3 7.375 C1.35 7.375 -0.3 7.375 -2 7.375 C-2.23074219 8.01308594 -2.46148437 8.65117187 -2.69921875 9.30859375 C-3.67450112 11.77956607 -4.64838308 14.08631959 -6 16.375 C-8.75 17.4375 -8.75 17.4375 -11 17.375 C-12.5625 15.75 -12.5625 15.75 -14 13.375 C-13.81356705 8.99382576 -12.62458443 5.87444591 -10 2.375 C-6.7068843 0.24897045 -3.87595829 0.04844948 0 0 Z " fill="#FEFEFE" transform="translate(312,255.625)"/>
  <path d="M0 0 C4.94742708 2.61373506 8.48243807 5.96487614 11 11 C11.3751455 15.97067782 11.15878799 19.05151502 8 23 C5.33542658 25.1711339 3.74666924 25 0.25 25 C-4.82474552 24.22218854 -8.2509257 21.34174694 -12 18 C-12.55171875 17.52949219 -13.1034375 17.05898437 -13.671875 16.57421875 C-16.20908358 13.56688034 -16.22699955 9.80710669 -16 6 C-12.20194355 -1.5961129 -7.62750945 -1.6848437 0 0 Z M-10 7 C-8.5682192 10.6297578 -6.99194181 11.90238825 -3.5625 13.6875 C-2.78003906 14.10386719 -1.99757812 14.52023438 -1.19140625 14.94921875 C1.09097125 16.09978796 1.09097125 16.09978796 4 17 C4 15.68 4 14.36 4 13 C-2.60309895 8.71111936 -2.60309895 8.71111936 -10 7 Z " fill="#FEFEFE" transform="translate(157,215)"/>
  <path d="M0 0 C1.6640625 1.15234375 1.6640625 1.15234375 2.6640625 3.90234375 C2.6640625 8.29827122 1.57955514 9.88130323 -1.3359375 13.15234375 C-7.07983665 17.5209431 -13.31336486 18.09747872 -20.3359375 17.15234375 C-22.88472672 15.97990071 -24.39891128 15.08936997 -26.3359375 13.15234375 C-26.7109375 10.40234375 -26.7109375 10.40234375 -26.3359375 7.15234375 C-19.98130777 -0.88439384 -9.74278402 -3.53542497 0 0 Z M-19.3359375 7.15234375 C-19.3359375 7.81234375 -19.3359375 8.47234375 -19.3359375 9.15234375 C-14.7159375 9.15234375 -10.0959375 9.15234375 -5.3359375 9.15234375 C-5.3359375 8.49234375 -5.3359375 7.83234375 -5.3359375 7.15234375 C-9.58112012 5.73728288 -15.29683832 5.13279416 -19.3359375 7.15234375 Z " fill="#FEFEFE" transform="translate(202.3359375,137.84765625)"/>
  <path d="M0 0 C3.2636943 2.1757962 3.51997292 2.69330244 4.68359375 6.21875 C5.11248901 7.48682495 5.11248901 7.48682495 5.55004883 8.78051758 C5.84290771 9.67794678 6.1357666 10.57537598 6.4375 11.5 C7.05299697 13.32739319 7.67016578 15.15422418 8.2890625 16.98046875 C8.58329102 17.85364746 8.87751953 18.72682617 9.18066406 19.62646484 C10.13603006 22.39406562 11.19336175 25.10721469 12.3125 27.8125 C14.22177563 32.45048287 16 36.92521719 16 42 C16.66 42.99 17.32 43.98 18 45 C18 45.66 18 46.32 18 47 C15.69 47 13.38 47 11 47 C9.60898428 43.5551173 8.27352295 40.09461226 6.9765625 36.61328125 C6.40421875 35.0809082 6.40421875 35.0809082 5.8203125 33.51757812 C5.03078606 31.40056359 4.2417148 29.28337924 3.453125 27.16601562 C1.30881076 21.42745655 -0.89566558 15.73436405 -3.29370117 10.09643555 C-4.31230215 7.07302504 -4.11098704 4.96263211 -3 2 C-2.01 1.34 -1.02 0.68 0 0 Z M10 33 C10.66 33.66 11.32 34.32 12 35 C12 34.34 12 33.68 12 33 C11.34 33 10.68 33 10 33 Z " fill="#FEFEFE" transform="translate(326,233)"/>
  <path d="M0 0 C0.99 0 1.98 0 3 0 C3 18.48 3 36.96 3 56 C1.02 56 -0.96 56 -3 56 C-3 38.51 -3 21.02 -3 3 C-2.01 2.67 -1.02 2.34 0 2 C0 1.34 0 0.68 0 0 Z " fill="#FEFEFE" transform="translate(378,243)"/>
  <path d="M0 0 C5.44587054 0 8.46478551 2.47946832 12.296875 6.01171875 C14.78215976 8.9131177 15.38999382 11.26371214 16 15 C10.84395368 20.67165095 3.60313111 27.50616472 -4.3046875 28.203125 C-9.38218323 28.29572371 -12.85513006 28.31589596 -17 25 C-16.67 23.68 -16.34 22.36 -16 21 C-15.01 21.33 -14.02 21.66 -13 22 C-6.08517548 22.7374201 -1.71288201 21.97417879 4 18 C2.68 16.68 1.36 15.36 0 14 C2.97 14 5.94 14 9 14 C8.49667073 10.06213467 8.49667073 10.06213467 6.375 8.9375 C5.59125 8.628125 4.8075 8.31875 4 8 C2.74908774 7.46044342 1.49913741 6.91865292 0.25 6.375 C-0.8225 5.92125 -1.895 5.4675 -3 5 C-1.125 1.125 -1.125 1.125 0 0 Z " fill="#FEFEFE" transform="translate(300,212)"/>
  <path d="M0 0 C0.33 1.32 0.66 2.64 1 4 C-0.0725 4.391875 -1.145 4.78375 -2.25 5.1875 C-5.89140865 6.72383468 -7.76947479 8.69882269 -10 12 C-7.03 12.33 -4.06 12.66 -1 13 C-1 13.66 -1 14.32 -1 15 C-2.98 15.99 -2.98 15.99 -5 17 C-0.15655217 20.84135517 3.65914777 21.13567328 9.6875 21.0625 C10.38939453 21.05798828 11.09128906 21.05347656 11.81445312 21.04882812 C13.54300538 21.03706927 15.27151365 21.01913454 17 21 C14.375 25.875 14.375 25.875 11 27 C4.51520227 27.58952707 -0.23302499 26.998827 -6 24 C-6.804375 23.608125 -7.60875 23.21625 -8.4375 22.8125 C-8.953125 22.544375 -9.46875 22.27625 -10 22 C-10 21.34 -10 20.68 -10 20 C-10.639375 19.731875 -11.27875 19.46375 -11.9375 19.1875 C-14 18 -14 18 -15 15 C-15.66 15 -16.32 15 -17 15 C-16.521575 9.97653748 -15.22014577 6.89807119 -12 3 C-8.12878069 -0.06203332 -4.88474283 -1.77627012 0 0 Z " fill="#FEFEFE" transform="translate(203,213)"/>
  <path d="M0 0 C4.93705484 3.06302126 10.06068414 6.92299987 13 12 C13 14.6875 13 14.6875 12 17 C9.12790437 18.85256384 7.22557351 19.29950512 3.875 18.6875 C-2.44312192 17.12630569 -6.55287421 12.50597244 -11 8 C-11.66 7.34 -12.32 6.68 -13 6 C-12.625 2.375 -12.625 2.375 -12 -1 C-7.60370049 -2.46543317 -4.29319352 -1.60234152 0 0 Z M-5 4 C-3.40758592 8.29951803 -0.64459275 10.39671947 3 13 C3.99 12.67 4.98 12.34 6 12 C4.54712339 10.66072279 3.08752741 9.32873153 1.625 8 C0.81289063 7.2575 0.00078125 6.515 -0.8359375 5.75 C-2.79533992 3.79040187 -2.79533992 3.79040187 -5 4 Z " fill="#FEFEFE" transform="translate(325,144)"/>
  <path d="M0 0 C5.06770815 0.42230901 8.60595895 1.63082923 13.08203125 4.01171875 C17.14896926 6.10731003 20.43235744 7 25 7 C25.33 7.33 25.66 7.66 26 8 C25.44912012 16.40091813 25.44912012 16.40091813 22 20 C20.125 19.6875 20.125 19.6875 18 19 C17.34 18.01 16.68 17.02 16 16 C13.04733172 14.49696288 13.04733172 14.49696288 9.625 13.25 C7.91183594 12.57710937 7.91183594 12.57710937 6.1640625 11.890625 C3.0321216 11.00904164 1.96334306 10.99868773 -1 12 C-1.66 11.67 -2.32 11.34 -3 11 C-2.25 3.375 -2.25 3.375 0 0 Z " fill="#FEFEFE" transform="translate(147,196)"/>
  <path d="M0 0 C1.32 0 2.64 0 4 0 C4 0.99 4 1.98 4 3 C10.93 3 17.86 3 25 3 C26 6 26 6 24.8125 9.125 C23 12 23 12 21.25 12.9375 C18.8285455 13.00476263 16.58803234 12.65837484 14.203125 12.26953125 C11.38009787 11.92416091 8.59329259 11.81524464 5.75 11.75 C4.73421875 11.72421875 3.7184375 11.6984375 2.671875 11.671875 C-0.40062342 12.04919937 -1.02986118 12.74066649 -3 15 C-5.1875 14.6875 -5.1875 14.6875 -7 14 C-6.33821095 8.54024033 -3.89354461 3.89354461 0 0 Z " fill="#FEFEFE" transform="translate(168,155)"/>
  <path d="M0 0 C0.66 0 1.32 0 2 0 C2.56267578 1.21236328 2.56267578 1.21236328 3.13671875 2.44921875 C7.31487133 11.93760076 7.31487133 11.93760076 15.3125 17.953125 C17.52758591 18.71456078 19.73807755 19.39386392 22 20 C21.34 22.64 20.68 25.28 20 28 C11.41852747 27.03112407 6.84816285 23.21947478 1 17 C-0.53266582 13.93466836 -0.10276471 10.73245728 -0.0625 7.375 C-0.05798828 6.66859375 -0.05347656 5.9621875 -0.04882812 5.234375 C-0.03703875 3.48954725 -0.01910324 1.744763 0 0 Z " fill="#FEFEFE" transform="translate(201,191)"/>
  <path d="M0 0 C9.35483871 -0.32258065 9.35483871 -0.32258065 14 2 C15.25 4.5625 15.25 4.5625 16 7 C16.66 7.33 17.32 7.66 18 8 C18 8.66 18 9.32 18 10 C18.53625 10.268125 19.0725 10.53625 19.625 10.8125 C22.41666667 12.20833333 25.20833333 13.60416667 28 15 C27.125 19.875 27.125 19.875 26 21 C23.18309697 21.05633806 21.57452819 20.99976648 19 20 C17.16817132 18.2398321 15.67843913 16.32934912 14.109375 14.33203125 C10.70240904 10.56544111 6.53159575 7.85932711 2.37890625 4.98046875 C1.59386719 4.32691406 0.80882812 3.67335937 0 3 C0 2.01 0 1.02 0 0 Z " fill="#FEFEFE" transform="translate(295,146)"/>
  <path d="M0 0 C0.33 0 0.66 0 1 0 C1.0814222 2.22855574 1.13938079 4.45797655 1.1875 6.6875 C1.23970703 8.54955078 1.23970703 8.54955078 1.29296875 10.44921875 C0.78774848 16.57248841 -2.50915326 20.03134474 -7 24 C-10.71252952 26.24298658 -13.62251242 27.72958126 -18 27 C-20 24 -20 24 -20 20 C-19.32453125 19.76925781 -18.6490625 19.53851563 -17.953125 19.30078125 C-7.71852907 15.55894199 -4.91852878 9.36159979 0 0 Z " fill="#FEFEFE" transform="translate(299,191)"/>
  <path d="M0 0 C2.52515327 1.93595084 4.68930611 4.13037867 6.875 6.4375 C7.844375 5.65375 8.81375 4.87 9.8125 4.0625 C10.35777344 3.62164062 10.90304688 3.18078125 11.46484375 2.7265625 C13.00766437 1.4708609 13.00766437 1.4708609 13.875 -0.5625 C21.625 0.3125 21.625 0.3125 23.875 1.4375 C22.68504534 5.00736397 21.38765227 5.55424377 18.15234375 7.23828125 C17.52457031 7.55152344 16.89679688 7.86476563 16.25 8.1875 C15.64542969 8.51621094 15.04085938 8.84492188 14.41796875 9.18359375 C9.81965255 11.50726313 6.81835395 11.7681852 1.875 10.4375 C-1.21484375 8.87890625 -1.21484375 8.87890625 -4.0625 7 C-5.02027344 6.38253906 -5.97804687 5.76507813 -6.96484375 5.12890625 C-7.67769531 4.57074219 -8.39054688 4.01257813 -9.125 3.4375 C-9.125 2.7775 -9.125 2.1175 -9.125 1.4375 C-2.81759259 -0.74583333 -2.81759259 -0.74583333 0 0 Z " fill="#FEFEFE" transform="translate(244.125,405.5625)"/>
  <path d="M0 0 C1.32 0 2.64 0 4 0 C4.8675136 5.63883841 2.61952767 8.62733752 -0.4921875 13.046875 C-2 15 -2 15 -4 17 C-6.625 16.625 -6.625 16.625 -9 16 C-10.35384615 9.72307692 -10.35384615 9.72307692 -8.5625 6.0625 C-8.046875 5.381875 -7.53125 4.70125 -7 4 C-6.01 4.33 -5.02 4.66 -4 5 C-3.67 5.99 -3.34 6.98 -3 8 C-2.814375 6.8553125 -2.814375 6.8553125 -2.625 5.6875 C-2 3 -2 3 0 0 Z " fill="#FEFEFE" transform="translate(357,253)"/>
  <path d="M0 0 C-0.48607595 5.46835443 -0.48607595 5.46835443 -2.8125 7.875 C-5 9 -5 9 -9 9 C-9.66 6.36 -10.32 3.72 -11 1 C-3.375 -1.125 -3.375 -1.125 0 0 Z " fill="#FEFEFE" transform="translate(189,275)"/>
  <path d="M0 0 C0.66 3.3 1.32 6.6 2 10 C0.081875 9.8453125 0.081875 9.8453125 -1.875 9.6875 C-2.95394531 9.60048828 -2.95394531 9.60048828 -4.0546875 9.51171875 C-6 9 -6 9 -8 6 C-8 4.68 -8 3.36 -8 2 C-5.09399739 0.74335022 -3.20395416 0 0 0 Z " fill="#FEFEFE" transform="translate(202,270)"/>
  <path d="M0 0 C1.9375 0.75 1.9375 0.75 4 2 C4.36162029 3.32594105 4.69728039 4.65938457 5 6 C5.99 6.33 6.98 6.66 8 7 C5.96324195 9.75561383 4.84190804 10.03270868 1.375 10.75 C0.26125 10.8325 -0.8525 10.915 -2 11 C-3 10 -3 10 -3.25 7.75 C-2.95277626 4.48053884 -1.83765781 2.67991764 0 0 Z " fill="#FEFEFE" transform="translate(194,257)"/>
  <path d="M0 0 C1.65 0 3.3 0 5 0 C3.33333333 5 1.66666667 10 0 15 C-1.65 15 -3.3 15 -5 15 C-4.43174347 9.45949887 -2.37113483 4.96284034 0 0 Z " fill="#FEFEFE" transform="translate(180,215)"/>
  <path d="M0 0 C4.38462134 0.50109958 6.8000997 1.98295115 10 5 C10 5.66 10 6.32 10 7 C3.375 10 3.375 10 0 10 C0 6.7 0 3.4 0 0 Z " fill="#FEFEFE" transform="translate(177,262)"/>
  <path d="M0 0 C2.475 0.99 2.475 0.99 5 2 C5.042721 3.66611905 5.04063832 5.33382885 5 7 C4 8 4 8 1.125 8.1875 C-2 8 -2 8 -5 6 C-5.1875 3.375 -5.1875 3.375 -5 1 C-4.01 1 -3.02 1 -2 1 C-2 1.99 -2 2.98 -2 4 C-1.01 4 -0.02 4 1 4 C0.67 2.68 0.34 1.36 0 0 Z " fill="#FEFEFE" transform="translate(294,131)"/>
  <path d="M0 0 C1.134375 0.020625 2.26875 0.04125 3.4375 0.0625 C4.0975 1.3825 4.7575 2.7025 5.4375 4.0625 C3.4375 6.0625 3.4375 6.0625 -0.1875 6.1875 C-1.30125 6.14625 -2.415 6.105 -3.5625 6.0625 C-3.94468767 4.40635343 -4.27645102 2.73792976 -4.5625 1.0625 C-3.5625 0.0625 -3.5625 0.0625 0 0 Z " fill="#FEFEFE" transform="translate(194.5625,281.9375)"/>
  <path d="M0 0 C1.32 0 2.64 0 4 0 C5.32 3.3 6.64 6.6 8 10 C7.01 10 6.02 10 5 10 C3.61328125 8.3203125 3.61328125 8.3203125 2.3125 6.125 C1.87550781 5.40570313 1.43851562 4.68640625 0.98828125 3.9453125 C0 2 0 2 0 0 Z " fill="#FEFEFE" transform="translate(317,215)"/>
  <path d="M0 0 C-0.33 1.65 -0.66 3.3 -1 5 C-2.32 5 -3.64 5 -5 5 C-4.625 3.0625 -4.625 3.0625 -4 1 C-2 0 -2 0 0 0 Z " fill="#FEFEFE" transform="translate(272,242)"/>
  <path d="M0 0 C1.98 0.99 1.98 0.99 4 2 C4 2.99 4 3.98 4 5 C2.68 4.67 1.36 4.34 0 4 C0 2.68 0 1.36 0 0 Z " fill="#FEFEFE" transform="translate(230,242)"/>
  <path d="M0 0 C1.37562854 1.28965176 2.70766393 2.62689293 4 4 C4 4.66 4 5.32 4 6 C3.34 6 2.68 6 2 6 C0 3 0 3 0 0 Z " fill="#FEFEFE" transform="translate(339,282)"/>
  <path d="M0 0 C0.66 0 1.32 0 2 0 C2.33 1.65 2.66 3.3 3 5 C2.01 4.67 1.02 4.34 0 4 C0 2.68 0 1.36 0 0 Z " fill="#FEFEFE" transform="translate(347,290)"/>
  <path d="M0 0 C0.66 0 1.32 0 2 0 C2.33 0.99 2.66 1.98 3 3 C2.01 3 1.02 3 0 3 C0 2.01 0 1.02 0 0 Z " fill="#FFFFFF" transform="translate(324,227)"/>
  <path d="M0 0 C0.66 0 1.32 0 2 0 C2 0.66 2 1.32 2 2 C1.34 2 0.68 2 0 2 C0 1.34 0 0.68 0 0 Z " fill="#FFFFFF" transform="translate(345,286)"/>
  <path d="" fill="currentColor" transform="translate(0,0)"/>
</svg>
